<svg width="36" height="36" viewBox="0 0 36 36" fill="none" xmlns="http://www.w3.org/2000/svg">
<path d="M9.10485 31.8736H4.01326C3.59382 31.8736 3.23438 32.2325 3.23438 32.6512C3.23438 33.07 3.59382 33.4282 4.01326 33.4282H9.10485C9.5243 33.4282 9.88315 33.07 9.88315 32.6512C9.88315 32.1726 9.5243 31.8736 9.10485 31.8736Z" fill="#FF5E14"/>
<path d="M20.6063 31.8736H15.5147C15.0953 31.8736 14.7358 32.2325 14.7358 32.6512C14.7358 33.07 15.0953 33.4282 15.5147 33.4282H20.6063C21.0252 33.4282 21.3846 33.07 21.3846 32.6512C21.3246 32.1726 21.0252 31.8736 20.6063 31.8736Z" fill="#FF5E14"/>
<path d="M32.0445 31.8736H26.9535C26.5341 31.8736 26.2346 32.2325 26.2346 32.6512C26.2346 33.07 26.5941 33.4282 26.9535 33.4282H32.0445C32.464 33.4282 32.8234 33.07 32.8234 32.6512C32.8234 32.1726 32.464 31.8736 32.0445 31.8736Z" fill="#FF5E14"/>
<path d="M21.3224 21.1692C21.3224 20.7504 20.9629 20.3916 20.5435 20.3916H15.4525C15.033 20.3916 14.6736 20.7504 14.6736 21.1692C14.6736 21.5879 15.033 21.9468 15.4525 21.9468H20.5435C21.0229 21.8869 21.3224 21.528 21.3224 21.1692Z" fill="#FF5E14"/>
<path d="M32.0445 20.3916H26.9535C26.5341 20.3916 26.2346 20.7504 26.2346 21.1692C26.2346 21.5879 26.5941 21.9468 26.9535 21.9468H32.0445C32.464 21.9468 32.8234 21.5879 32.8234 21.1692C32.8234 20.7504 32.464 20.3916 32.0445 20.3916Z" fill="#FF5E14"/>
<path d="M34.5022 34.3849H24.5591V24.4583H26.8951V28.8237C26.8951 29.4216 27.554 29.7804 28.0329 29.4216L29.5306 28.405L31.0278 29.4216C31.5073 29.7804 32.1662 29.4216 32.1662 28.8237V24.4583H34.5022V34.3849ZM13.0581 24.4583H15.3942V28.8237C15.3942 29.4216 16.0531 29.7804 16.5325 29.4216L18.0297 28.405L19.5275 29.4216C20.0063 29.7804 20.6652 29.4216 20.6652 28.8237V24.4583H23.0013V34.4454H13.0581V24.4583ZM1.55718 24.4583H3.89325V28.8237C3.89325 29.4216 4.55213 29.7804 5.03158 29.4216L6.52877 28.405L8.02654 29.4216C8.50539 29.7804 9.16486 29.4216 9.16486 28.8237V24.4583H11.5009V34.4454H1.55718V24.4583ZM7.7271 24.4583V27.3889L6.94822 26.9103C6.70879 26.7306 6.34934 26.7306 6.10991 26.9103L5.39102 27.3889V24.4583H7.7271ZM16.892 24.4583H19.228V27.3889L18.4491 26.9103C18.2097 26.7306 17.8503 26.7306 17.6103 26.9103L16.8314 27.3889V24.4583H16.892ZM13.0581 12.9765H15.3942V17.3419C15.3942 17.9398 16.0531 18.2987 16.5325 17.9398L18.0297 16.9232L19.5275 17.9398C20.0063 18.2393 20.6652 17.9398 20.6652 17.3419V12.9765H23.0013V22.9636C19.7669 22.9636 16.2331 22.9636 12.9981 22.9636L13.0581 12.9765ZM19.228 12.9765V15.9072L18.4491 15.4285C18.2097 15.2488 17.8503 15.2488 17.6103 15.4285L16.8314 15.9072V12.9765H19.228ZM24.5591 1.4947H26.8951V5.86071C26.8951 6.458 27.554 6.81686 28.0329 6.45802L29.5306 5.44196L31.0278 6.45802C31.5073 6.81686 32.1662 6.458 32.1662 5.86071V1.4947H34.5022V11.4818C31.3272 11.4818 27.7334 11.4818 24.4991 11.4818L24.5591 1.4947ZM30.669 1.4947V4.42536L29.9501 3.94669C29.7107 3.76756 29.3512 3.76756 29.1112 3.94669L28.3323 4.42536V1.4947H30.669ZM28.3323 12.9765H30.669V15.9072L29.9501 15.4285C29.7107 15.2488 29.3512 15.2488 29.1112 15.4285L28.3323 15.9072V12.9765ZM24.5591 22.9636V12.9765H26.8951V17.3419C26.8951 17.9398 27.554 18.2987 28.0329 17.9398L29.5306 16.9232L31.0278 17.9398C31.5073 18.2393 32.1662 17.9398 32.1662 17.3419V12.9765H34.5022V22.9636C28.8718 22.9636 30.0695 22.9636 24.5591 22.9636ZM28.3323 24.4583H30.669V27.3889L29.9501 26.9103C29.7107 26.7306 29.3512 26.7306 29.1112 26.9103L28.3323 27.3889V24.4583ZM35.2811 0C31.0884 0 27.7334 0 23.7802 0C23.3607 0 23.0013 0.358849 23.0013 0.777004V11.4818C19.5275 11.4818 16.3525 11.4818 12.2792 11.4818C11.8598 11.4818 11.5009 11.8407 11.5009 12.2588V22.9636C8.26596 22.9636 4.85157 22.9636 0.778293 22.9636C0.35944 22.9636 0 23.3225 0 23.7406V35.2224C0 35.6412 0.35944 36 0.778293 36C9.76374 36 29.2912 36 35.2211 36C35.6406 36 36 35.6412 36 35.2224C36 28.166 36 12.6177 36 0.836926C36 0.358864 35.7006 0 35.2811 0Z" fill="#FF5E14"/>
<path d="M32.8234 9.68821C32.8234 9.26946 32.464 8.91062 32.0445 8.91062H26.9535C26.5341 8.91062 26.2346 9.26946 26.2346 9.68821C26.2346 10.107 26.5941 10.4658 26.9535 10.4658H32.0445C32.464 10.4059 32.8234 10.107 32.8234 9.68821Z" fill="#FF5E14"/>
</svg>
