<svg width="36" height="36" viewBox="0 0 36 36" fill="none" xmlns="http://www.w3.org/2000/svg">
<path d="M12.3789 2.21285L15.6679 7.59491H8.31242L12.3789 2.21285ZM10.9437 1.61499L6.81732 6.99704L3.52847 1.61499H10.9437ZM27.2694 7.05695L23.9805 1.67489H31.3359L27.2694 7.05695ZM18.5385 7.59491L22.605 2.21285L25.8939 7.59491H18.5385ZM17.1032 7.05695L13.8142 1.67489H21.1696L17.1032 7.05695ZM19.4353 14.3524C19.4353 15.1899 18.7775 15.8477 17.9403 15.8477C17.1032 15.8477 16.4452 15.1899 16.4452 14.3524C16.4452 13.5149 17.1032 12.8577 17.9403 12.8577C18.7775 12.8577 19.4353 13.5149 19.4353 14.3524ZM34.3851 34.5058H1.4951V25.5353H34.3851V34.5058ZM17.9403 17.4023L31.8139 24.04H4.06668L17.9403 17.4023ZM35.1633 9.0902C35.5815 9.0902 35.9403 8.73135 35.9403 8.3126C35.9403 7.89385 35.5815 7.535 35.1633 7.535H28.7641L33.3092 1.55508H35.1633C35.5815 1.55508 35.9403 1.19623 35.9403 0.777481C35.9403 0.359325 35.5815 0.000488281 35.1633 0.000488281H0.777831C0.358903 0.000488281 0 0.359325 0 0.777481C0 1.19623 0.358903 1.55508 0.777831 1.55508H1.854L5.50199 7.535H0.777831C0.358903 7.535 0 7.89385 0 8.3126C0 8.73135 0.358903 9.0902 0.777831 9.0902H17.2226V11.4224C14.8306 12.0203 14.1731 15.0701 16.0863 16.6247C-0.657543 24.6385 0.418927 24.0999 0.299352 24.2197C0.119812 24.339 0.0600261 24.5187 0.0600261 24.6978C0.0600261 24.7577 0.0600261 23.6219 0.0600261 35.2229C0.0600261 35.6416 0.41893 36.0005 0.837383 36.0005H35.2226C35.6414 36.0005 36.0002 35.6416 36.0002 35.2229C36.0002 24.04 36.0002 24.6978 35.9403 24.5187C35.8804 24.339 35.7606 24.1598 35.5216 24.0999L19.8541 16.6846C21.7675 15.13 21.0498 12.0802 18.7176 11.4823V9.15009H35.1633V9.0902Z" fill="#FF5E14"/>
<path d="M4.48631 33.0103C4.90494 33.0103 5.26384 32.652 5.26384 32.2333V27.748C5.26384 27.3293 4.90494 26.9704 4.48631 26.9704C4.06786 26.9704 3.70895 27.3293 3.70895 27.748V32.2333C3.76898 32.7113 4.06786 33.0103 4.48631 33.0103Z" fill="#FF5E14"/>
<path d="M7.47482 33.0103C7.89321 33.0103 8.25211 32.652 8.25211 32.2333V27.748C8.25211 27.3293 7.89321 26.9704 7.47482 26.9704C7.05613 26.9704 6.69722 27.3293 6.69722 27.748V32.2333C6.75724 32.7113 7.05613 33.0103 7.47482 33.0103Z" fill="#FF5E14"/>
<path d="M10.465 33.0103C10.8835 33.0103 11.2423 32.652 11.2423 32.2333V27.748C11.2423 27.3293 10.8835 26.9704 10.465 26.9704C10.0466 26.9704 9.68744 27.3293 9.68744 27.748V32.2333C9.74746 32.7113 10.0466 33.0103 10.465 33.0103Z" fill="#FF5E14"/>
<path d="M13.4549 33.0103C13.8736 33.0103 14.2322 32.652 14.2322 32.2333V27.748C14.2322 27.3293 13.8736 26.9704 13.4549 26.9704C13.0365 26.9704 12.6776 27.3293 12.6776 27.748V32.2333C12.7374 32.7113 13.0365 33.0103 13.4549 33.0103Z" fill="#FF5E14"/>
<path d="M16.4452 33.0103C16.8641 33.0103 17.2225 32.652 17.2225 32.2333V27.748C17.2225 27.3293 16.8641 26.9704 16.4452 26.9704C16.0267 26.9704 15.6679 27.3293 15.6679 27.748V32.2333C15.7276 32.7113 16.0267 33.0103 16.4452 33.0103Z" fill="#FF5E14"/>
<path d="M19.4357 33.0103C19.8544 33.0103 20.2133 32.652 20.2133 32.2333V27.748C20.2133 27.3293 19.8544 26.9704 19.4357 26.9704C19.0169 26.9704 18.6581 27.3293 18.6581 27.748V32.2333C18.718 32.7113 19.0169 33.0103 19.4357 33.0103Z" fill="#FF5E14"/>
<path d="M22.4259 33.0103C22.8446 33.0103 23.2035 32.652 23.2035 32.2333V27.748C23.2035 27.3293 22.8446 26.9704 22.4259 26.9704C22.0071 26.9704 21.6483 27.3293 21.6483 27.748V32.2333C21.7082 32.7113 22.0071 33.0103 22.4259 33.0103Z" fill="#FF5E14"/>
<path d="M25.4161 33.0103C25.8349 33.0103 26.1937 32.652 26.1937 32.2333V27.748C26.1937 27.3293 25.8349 26.9704 25.4161 26.9704C24.9974 26.9704 24.6385 27.3293 24.6385 27.748V32.2333C24.6984 32.7113 24.9974 33.0103 25.4161 33.0103Z" fill="#FF5E14"/>
<path d="M28.4057 33.0103C28.8245 33.0103 29.1833 32.652 29.1833 32.2333V27.748C29.1833 27.3293 28.8245 26.9704 28.4057 26.9704C27.987 26.9704 27.6287 27.3293 27.6287 27.748V32.2333C27.6886 32.7113 27.987 33.0103 28.4057 33.0103Z" fill="#FF5E14"/>
<path d="M31.394 33.0103C31.8127 33.0103 32.1716 32.652 32.1716 32.2333V27.748C32.1716 27.3293 31.8127 26.9704 31.394 26.9704C30.9758 26.9704 30.617 27.3293 30.617 27.748V32.2333C30.6769 32.7113 30.9758 33.0103 31.394 33.0103Z" fill="#FF5E14"/>
</svg>
