<svg width="24" height="24" viewBox="0 0 24 24" fill="none" xmlns="http://www.w3.org/2000/svg">
<path d="M12.8571 0C12.3837 0 12 0.38376 12 0.857143C12 1.33053 12.3837 1.71429 12.8571 1.71429C18.0644 1.71429 22.2857 5.9356 22.2857 11.1429C22.2857 11.6163 22.6695 12 23.1429 12C23.6163 12 24 11.6163 24 11.1429C24 4.98883 19.0112 0 12.8571 0Z" fill="#D11207"/>
<path fill-rule="evenodd" clip-rule="evenodd" d="M6.13803 3.35619C5.09384 2.31838 3.40031 2.305 2.35279 3.34613C-0.233472 5.91659 -0.843963 9.99722 1.30869 13.0749C4.17678 17.1754 7.13451 20.1625 10.9316 22.7592C14.0085 24.8635 18.0381 24.1632 20.5777 21.6392C21.6476 20.5757 21.7216 18.8446 20.6285 17.7581L18.2625 15.4066C17.2431 14.3935 15.6037 14.3406 14.5319 15.3037L13.3817 16.3371C13.0653 16.6214 12.6151 16.6633 12.277 16.4588C10.0435 15.1075 8.80405 13.864 7.46768 11.6795C7.26514 11.3485 7.30534 10.9079 7.58983 10.5951L8.62954 9.45208C9.6018 8.38313 9.54771 6.74501 8.52582 5.72943L6.13803 3.35619ZM3.56125 4.56202C3.93126 4.19428 4.54505 4.18991 4.92956 4.57208L7.31734 6.94528C7.6974 7.32302 7.7082 7.91728 7.3614 8.29862L6.32167 9.44162C5.55138 10.2885 5.38466 11.5595 6.00533 12.5741C7.4844 14.992 8.92088 16.432 11.3897 17.9255C12.4051 18.5398 13.6773 18.3762 14.5275 17.6122L15.6777 16.5788C16.0649 16.2309 16.6716 16.2424 17.0541 16.6226L19.42 18.9741C19.8471 19.3986 19.7724 20.0224 19.3692 20.4232C17.3268 22.4531 14.2012 22.9185 11.8993 21.3442C8.28934 18.8755 5.47519 16.0408 2.71346 12.0923C1.08811 9.76853 1.50276 6.60795 3.56125 4.56202Z" fill="#D11207"/>
<path d="M12.8571 6.8562C12.3837 6.8562 12 7.23994 12 7.71334C12 8.18674 12.3837 8.57049 12.8571 8.57049C14.2773 8.57049 15.4286 9.72172 15.4286 11.1419C15.4286 11.6153 15.8123 11.9991 16.2857 11.9991C16.7591 11.9991 17.1429 11.6153 17.1429 11.1419C17.1429 8.775 15.2241 6.8562 12.8571 6.8562Z" fill="#D11207"/>
<path d="M12 4.28561C12 3.81223 12.3837 3.42847 12.8571 3.42847C17.1177 3.42847 20.5714 6.88224 20.5714 11.1428C20.5714 11.6162 20.1877 11.9999 19.7143 11.9999C19.2409 11.9999 18.8571 11.6162 18.8571 11.1428C18.8571 7.82904 16.1709 5.14275 12.8571 5.14275C12.3837 5.14275 12 4.75899 12 4.28561Z" fill="#D11207"/>
</svg>
