<svg width="33" height="33" viewBox="0 0 33 33" fill="none" xmlns="http://www.w3.org/2000/svg">
<path d="M11.6323 7.28716L24.6323 7.28716C24.8975 7.28716 25.1518 7.39252 25.3394 7.58006C25.5269 7.76759 25.6323 8.02195 25.6323 8.28716L25.6323 21.2872C25.6323 21.5524 25.5269 21.8067 25.3394 21.9943C25.1518 22.1818 24.8975 22.2872 24.6323 22.2872C24.3671 22.2872 24.1127 22.1818 23.9252 21.9943C23.7376 21.8067 23.6323 21.5524 23.6323 21.2872L23.6323 10.7009L9.33977 24.9947C9.15213 25.1823 8.89763 25.2877 8.63227 25.2877C8.36691 25.2877 8.11241 25.1823 7.92477 24.9947C7.73713 24.807 7.63171 24.5525 7.63171 24.2872C7.63171 24.0218 7.73713 23.7673 7.92477 23.5797L22.2185 9.28716L11.6323 9.28716C11.3671 9.28716 11.1127 9.18181 10.9252 8.99427C10.7376 8.80673 10.6323 8.55238 10.6323 8.28716C10.6323 8.02195 10.7376 7.76759 10.9252 7.58006C11.1127 7.39252 11.3671 7.28716 11.6323 7.28716Z" fill="#D11207"/>
</svg>
