<svg width="19" height="19" viewBox="0 0 19 19" fill="none" xmlns="http://www.w3.org/2000/svg">
<path d="M4.63288 0.287529L17.6329 0.287529C17.8981 0.287529 18.1525 0.392885 18.34 0.580421C18.5275 0.767958 18.6329 1.02231 18.6329 1.28753L18.6329 14.2875C18.6329 14.5527 18.5275 14.8071 18.34 14.9946C18.1525 15.1822 17.8981 15.2875 17.6329 15.2875C17.3677 15.2875 17.1133 15.1822 16.9258 14.9946C16.7382 14.8071 16.6329 14.5527 16.6329 14.2875L16.6329 3.70128L2.34038 17.995C2.15274 18.1827 1.89824 18.2881 1.63288 18.2881C1.36752 18.2881 1.11302 18.1827 0.92538 17.995C0.73774 17.8074 0.632324 17.5529 0.632324 17.2875C0.632324 17.0222 0.73774 16.7677 0.92538 16.58L15.2191 2.28753L4.63288 2.28753C4.36766 2.28753 4.11331 2.18217 3.92577 1.99464C3.73824 1.8071 3.63288 1.55275 3.63288 1.28753C3.63288 1.02231 3.73824 0.767958 3.92577 0.580421C4.11331 0.392885 4.36766 0.287529 4.63288 0.287529Z" fill="#0E47A1"/>
</svg>
