<svg width="32" height="32" viewBox="0 0 32 32" fill="none" xmlns="http://www.w3.org/2000/svg">
<path d="M22.6667 28.0003C24.1394 28.0003 25.3333 26.8064 25.3333 25.3337C25.3333 23.8609 24.1394 22.667 22.6667 22.667C21.1939 22.667 20 23.8609 20 25.3337C20 26.8064 21.1939 28.0003 22.6667 28.0003Z" stroke="#0E47A1" stroke-width="2" stroke-linecap="round" stroke-linejoin="round"/>
<path d="M9.33268 28.0003C10.8054 28.0003 11.9993 26.8064 11.9993 25.3337C11.9993 23.8609 10.8054 22.667 9.33268 22.667C7.85992 22.667 6.66602 23.8609 6.66602 25.3337C6.66602 26.8064 7.85992 28.0003 9.33268 28.0003Z" stroke="#0E47A1" stroke-width="2" stroke-linecap="round" stroke-linejoin="round"/>
<path d="M2.66602 12.0003V18.5963C2.66602 21.7723 2.66602 23.3603 3.64202 24.347C4.29135 25.003 5.20335 25.223 6.66602 25.2963M16.5687 6.66699C17.786 7.06699 18.742 8.03233 19.1367 9.26299C19.3327 9.87099 19.3327 10.623 19.3327 12.1297C19.3327 13.1323 19.3327 13.6337 19.4633 14.039C19.5918 14.4421 19.8139 14.8091 20.1115 15.1099C20.4091 15.4107 20.7736 15.6368 21.1753 15.7697C21.5767 15.9017 22.0727 15.9017 23.066 15.9017H29.3327V18.5963C29.3327 21.7723 29.3327 23.3603 28.3567 24.347C27.7073 25.003 26.7953 25.223 25.3327 25.2963M11.9993 25.3337H19.9993" stroke="#0E47A1" stroke-width="2" stroke-linecap="round" stroke-linejoin="round"/>
<path d="M19.3327 9.33333H21.7607C23.702 9.33333 24.6713 9.33333 25.4607 9.80533C26.2513 10.276 26.7113 11.1307 27.6313 12.84L29.3327 16M9.76868 10.6667L11.75 9.10133C12.8047 8.26667 13.3327 7.85067 13.3327 7.33333M13.3327 7.33333C13.3327 6.816 12.8047 6.4 11.75 5.56533L9.76868 4M13.3327 7.33333H2.66602" stroke="#0E47A1" stroke-width="2" stroke-linecap="round" stroke-linejoin="round"/>
</svg>
