<svg width="33" height="33" viewBox="0 0 33 33" fill="none" xmlns="http://www.w3.org/2000/svg">
<path d="M28.5 6.5H4.5C3.96957 6.5 3.46086 6.71071 3.08579 7.08579C2.71071 7.46086 2.5 7.96957 2.5 8.5V24.5C2.5 25.0304 2.71071 25.5391 3.08579 25.9142C3.46086 26.2893 3.96957 26.5 4.5 26.5H28.5C29.0304 26.5 29.5391 26.2893 29.9142 25.9142C30.2893 25.5391 30.5 25.0304 30.5 24.5V8.5C30.5 7.96957 30.2893 7.46086 29.9142 7.08579C29.5391 6.71071 29.0304 6.5 28.5 6.5ZM26.3 8.5L16.5 15.28L6.7 8.5H26.3ZM4.5 24.5V9.41L15.93 17.32C16.0974 17.4361 16.2963 17.4984 16.5 17.4984C16.7037 17.4984 16.9026 17.4361 17.07 17.32L28.5 9.41V24.5H4.5Z" fill="#0E47A1"/>
</svg>
