<svg width="38" height="40" viewBox="0 0 38 40" fill="none" xmlns="http://www.w3.org/2000/svg">
<path d="M28.2314 0C24.8329 0 22.0775 2.75846 22.0775 6.15385C22.0775 10.2538 27.4621 15.8554 27.4621 21.4908H29.0006C29.0021 15.8554 34.3852 10.4154 34.3852 6.15385C34.3852 2.75846 31.6298 0 28.2314 0ZM28.2314 2.98154C28.6482 2.98174 29.0608 3.06403 29.4458 3.22372C29.8308 3.38341 30.1806 3.61736 30.4752 3.91222C30.7697 4.20709 31.0034 4.55708 31.1627 4.94223C31.322 5.32737 31.4039 5.74013 31.4037 6.15692C31.4035 6.57372 31.3212 6.98639 31.1615 7.37138C31.0018 7.75638 30.7679 8.10614 30.473 8.40072C30.1781 8.6953 29.8281 8.92891 29.443 9.08823C29.0578 9.24754 28.6451 9.32943 28.2283 9.32923C27.3863 9.32882 26.579 8.99396 25.984 8.39832C25.3889 7.80267 25.0548 6.99504 25.0552 6.15308C25.0556 5.31112 25.3905 4.5038 25.9861 3.90874C26.5818 3.31367 27.3894 2.98113 28.2314 2.98154ZM19.0006 3.07692C8.8206 3.07692 0.539062 11.3585 0.539062 21.5385C0.539062 31.7185 8.8206 40 19.0006 40C29.1806 40 37.4621 31.7185 37.4621 21.5385C37.4621 18.4462 36.696 15.5446 35.3468 12.98C35.1421 13.3862 34.936 13.7723 34.7221 14.1831C34.3175 14.9646 33.8914 15.7538 33.5191 16.5385C33.9037 17.6385 34.1683 18.8015 34.2883 20H32.2698C32.1591 20.5154 32.0775 21 32.0775 21.4908V23.0769H34.2898C34.0811 25.2459 33.4084 27.3446 32.3175 29.2308H27.8006C28.1391 27.7877 28.3344 26.1923 28.4729 24.5677H25.4421C25.2988 26.1418 25.0261 27.7014 24.6268 29.2308H13.3744C12.8545 27.2173 12.5482 25.1546 12.4606 23.0769H24.3837V21.4908C24.3718 20.9885 24.3073 20.4889 24.1914 20H12.4621C12.5497 17.9223 12.856 15.8596 13.376 13.8462H21.5975C21.0639 12.8385 20.5661 11.8122 20.1052 10.7692H14.4329C15.7052 7.86615 17.3868 6.15385 19.0006 6.15385C19.0006 5.08462 19.1929 4.08 19.5298 3.12462C19.3529 3.11846 19.1791 3.07692 19.0006 3.07692ZM12.6544 7.54769C12.0418 8.57093 11.5267 9.64953 11.116 10.7692H8.03906C9.36612 9.42046 10.9308 8.32831 12.6544 7.54769ZM5.68368 13.8462H10.2006C9.73529 15.8672 9.46177 17.9276 9.38368 20H3.71137C3.91941 17.8309 4.59209 15.7321 5.68368 13.8462ZM3.71137 23.0769H9.38522C9.47599 25.2692 9.75906 27.3385 10.2021 29.2308H5.68368C4.59342 27.3443 3.92083 25.2457 3.71137 23.0769ZM8.03906 32.3077H11.116C11.5591 33.5015 12.0775 34.5738 12.6544 35.5292C10.9308 34.7486 9.36612 33.6565 8.03906 32.3077ZM14.4329 32.3077H23.5683C22.296 35.2108 20.6144 36.9231 19.0006 36.9231C17.3868 36.9231 15.7037 35.2108 14.4329 32.3077ZM26.8852 32.3077H29.9621C28.6351 33.6565 27.0704 34.7486 25.3468 35.5292C25.9237 34.5754 26.4421 33.5031 26.8852 32.3077Z" fill="#D11207"/>
</svg>
