<svg width="41" height="40" viewBox="0 0 41 40" fill="none" xmlns="http://www.w3.org/2000/svg">
<path d="M29.7314 0C26.3329 0 23.5775 2.75846 23.5775 6.15385C23.5775 10.2538 28.9621 15.8554 28.9621 21.4908H30.5006C30.5021 15.8554 35.8852 10.4154 35.8852 6.15385C35.8852 2.75846 33.1298 0 29.7314 0ZM29.7314 2.98154C30.1482 2.98174 30.5608 3.06403 30.9458 3.22372C31.3308 3.38341 31.6806 3.61736 31.9752 3.91222C32.2697 4.20709 32.5034 4.55708 32.6627 4.94223C32.822 5.32737 32.9039 5.74013 32.9037 6.15692C32.9035 6.57372 32.8212 6.98639 32.6615 7.37138C32.5018 7.75638 32.2679 8.10614 31.973 8.40072C31.6781 8.6953 31.3281 8.92891 30.943 9.08823C30.5578 9.24754 30.1451 9.32943 29.7283 9.32923C28.8863 9.32882 28.079 8.99396 27.484 8.39832C26.8889 7.80267 26.5548 6.99504 26.5552 6.15308C26.5556 5.31112 26.8905 4.5038 27.4861 3.90874C28.0818 3.31367 28.8894 2.98113 29.7314 2.98154ZM20.5006 3.07692C10.3206 3.07692 2.03906 11.3585 2.03906 21.5385C2.03906 31.7185 10.3206 40 20.5006 40C30.6806 40 38.9621 31.7185 38.9621 21.5385C38.9621 18.4462 38.196 15.5446 36.8468 12.98C36.6421 13.3862 36.436 13.7723 36.2221 14.1831C35.8175 14.9646 35.3914 15.7538 35.0191 16.5385C35.4037 17.6385 35.6683 18.8015 35.7883 20H33.7698C33.6591 20.5154 33.5775 21 33.5775 21.4908V23.0769H35.7898C35.5811 25.2459 34.9084 27.3446 33.8175 29.2308H29.3006C29.6391 27.7877 29.8344 26.1923 29.9729 24.5677H26.9421C26.7988 26.1418 26.5261 27.7014 26.1268 29.2308H14.8744C14.3545 27.2173 14.0482 25.1546 13.9606 23.0769H25.8837V21.4908C25.8718 20.9885 25.8073 20.4889 25.6914 20H13.9621C14.0497 17.9223 14.356 15.8596 14.876 13.8462H23.0975C22.5639 12.8385 22.0661 11.8122 21.6052 10.7692H15.9329C17.2052 7.86615 18.8868 6.15385 20.5006 6.15385C20.5006 5.08462 20.6929 4.08 21.0298 3.12462C20.8529 3.11846 20.6791 3.07692 20.5006 3.07692ZM14.1544 7.54769C13.5418 8.57093 13.0267 9.64953 12.616 10.7692H9.53906C10.8661 9.42046 12.4308 8.32831 14.1544 7.54769ZM7.18368 13.8462H11.7006C11.2353 15.8672 10.9618 17.9276 10.8837 20H5.21137C5.41941 17.8309 6.09209 15.7321 7.18368 13.8462ZM5.21137 23.0769H10.8852C10.976 25.2692 11.2591 27.3385 11.7021 29.2308H7.18368C6.09342 27.3443 5.42083 25.2457 5.21137 23.0769ZM9.53906 32.3077H12.616C13.0591 33.5015 13.5775 34.5738 14.1544 35.5292C12.4308 34.7486 10.8661 33.6565 9.53906 32.3077ZM15.9329 32.3077H25.0683C23.796 35.2108 22.1144 36.9231 20.5006 36.9231C18.8868 36.9231 17.2037 35.2108 15.9329 32.3077ZM28.3852 32.3077H31.4621C30.1351 33.6565 28.5704 34.7486 26.8468 35.5292C27.4237 34.5754 27.9421 33.5031 28.3852 32.3077Z" fill="#0E47A1"/>
</svg>
