<svg width="40" height="40" viewBox="0 0 40 40" fill="none" xmlns="http://www.w3.org/2000/svg">
<path d="M29.2314 0C25.8329 0 23.0775 2.75846 23.0775 6.15385C23.0775 10.2538 28.4621 15.8554 28.4621 21.4908H30.0006C30.0021 15.8554 35.3852 10.4154 35.3852 6.15385C35.3852 2.75846 32.6298 0 29.2314 0ZM29.2314 2.98154C29.6482 2.98174 30.0608 3.06403 30.4458 3.22372C30.8308 3.38341 31.1806 3.61736 31.4752 3.91222C31.7697 4.20709 32.0034 4.55708 32.1627 4.94223C32.322 5.32737 32.4039 5.74013 32.4037 6.15692C32.4035 6.57372 32.3212 6.98639 32.1615 7.37138C32.0018 7.75638 31.7679 8.10614 31.473 8.40072C31.1781 8.6953 30.8281 8.92891 30.443 9.08823C30.0578 9.24754 29.6451 9.32943 29.2283 9.32923C28.3863 9.32882 27.579 8.99396 26.984 8.39832C26.3889 7.80267 26.0548 6.99504 26.0552 6.15308C26.0556 5.31112 26.3905 4.5038 26.9861 3.90874C27.5818 3.31367 28.3894 2.98113 29.2314 2.98154ZM20.0006 3.07692C9.8206 3.07692 1.53906 11.3585 1.53906 21.5385C1.53906 31.7185 9.8206 40 20.0006 40C30.1806 40 38.4621 31.7185 38.4621 21.5385C38.4621 18.4462 37.696 15.5446 36.3468 12.98C36.1421 13.3862 35.936 13.7723 35.7221 14.1831C35.3175 14.9646 34.8914 15.7538 34.5191 16.5385C34.9037 17.6385 35.1683 18.8015 35.2883 20H33.2698C33.1591 20.5154 33.0775 21 33.0775 21.4908V23.0769H35.2898C35.0811 25.2459 34.4084 27.3446 33.3175 29.2308H28.8006C29.1391 27.7877 29.3344 26.1923 29.4729 24.5677H26.4421C26.2988 26.1418 26.0261 27.7014 25.6268 29.2308H14.3744C13.8545 27.2173 13.5482 25.1546 13.4606 23.0769H25.3837V21.4908C25.3718 20.9885 25.3073 20.4889 25.1914 20H13.4621C13.5497 17.9223 13.856 15.8596 14.376 13.8462H22.5975C22.0639 12.8385 21.5661 11.8122 21.1052 10.7692H15.4329C16.7052 7.86615 18.3868 6.15385 20.0006 6.15385C20.0006 5.08462 20.1929 4.08 20.5298 3.12462C20.3529 3.11846 20.1791 3.07692 20.0006 3.07692ZM13.6544 7.54769C13.0418 8.57093 12.5267 9.64953 12.116 10.7692H9.03906C10.3661 9.42046 11.9308 8.32831 13.6544 7.54769ZM6.68368 13.8462H11.2006C10.7353 15.8672 10.4618 17.9276 10.3837 20H4.71137C4.91941 17.8309 5.59209 15.7321 6.68368 13.8462ZM4.71137 23.0769H10.3852C10.476 25.2692 10.7591 27.3385 11.2021 29.2308H6.68368C5.59342 27.3443 4.92083 25.2457 4.71137 23.0769ZM9.03906 32.3077H12.116C12.5591 33.5015 13.0775 34.5738 13.6544 35.5292C11.9308 34.7486 10.3661 33.6565 9.03906 32.3077ZM15.4329 32.3077H24.5683C23.296 35.2108 21.6144 36.9231 20.0006 36.9231C18.3868 36.9231 16.7037 35.2108 15.4329 32.3077ZM27.8852 32.3077H30.9621C29.6351 33.6565 28.0704 34.7486 26.3468 35.5292C26.9237 34.5754 27.4421 33.5031 27.8852 32.3077Z" fill="#4AB9CF"/>
</svg>
