<svg width="32" height="32" viewBox="0 0 32 32" fill="none" xmlns="http://www.w3.org/2000/svg">
<path d="M30.6158 30.6153H1.33189V12.6719H6.65623V14.8551H5.43105C5.0582 14.8551 4.73922 15.1746 4.73922 15.5474C4.73922 16.3459 4.10022 17.0383 3.24839 17.0383C2.87607 17.0383 2.55602 17.3578 2.55602 17.7306V25.7705C2.55602 26.1428 2.87607 26.4623 3.24839 26.4623C4.04688 26.4623 4.73922 27.1013 4.73922 27.9531C4.73922 28.326 5.0582 28.6455 5.43105 28.6455H26.4633C26.8356 28.6455 27.1552 28.326 27.1552 27.9531C27.1552 27.1546 27.7942 26.4623 28.646 26.4623C29.0188 26.4623 29.3383 26.1428 29.3383 25.7705V17.6239C29.3383 17.2511 29.0188 16.9316 28.646 16.9316C27.8475 16.9316 27.1552 16.2926 27.1552 15.4407C27.1552 15.0679 26.8356 14.7489 26.4633 14.7489H25.2381V12.5657H30.5625L30.6158 30.6153ZM11.9806 1.33084V3.35452H7.98707V1.33084H11.9806ZM18.6358 1.33084V7.98653H13.3114V1.33084H18.6358ZM23.9601 3.35452H19.9671V1.33084H23.9601V3.35452ZM6.65623 20.659H5.9639C5.59105 20.659 5.27156 20.9784 5.27156 21.3507C5.27156 21.7236 5.59105 22.0431 5.9639 22.0431C13.4181 22.0431 18.4763 22.0431 25.9305 22.0431C26.3033 22.0431 26.6223 21.7236 26.6223 21.3507C26.6223 20.9784 26.3033 20.659 25.9305 20.659H25.2381V16.1864H25.8243C26.0905 17.1977 26.889 17.9968 27.9003 18.2096V25.0781C26.889 25.3443 26.0905 26.1428 25.8243 27.1013H6.07003C5.8044 26.09 5.00537 25.2909 3.99405 25.0781V18.2096C5.00537 17.9434 5.8044 17.1449 6.07003 16.1864H6.65623V20.659ZM12.6724 9.3179H19.3281C19.701 9.3179 20.0199 8.99838 20.0199 8.62554V4.63203H24.0134V20.6056H8.04039V4.63203H12.0334V8.62554C11.9806 9.05119 12.2996 9.3179 12.6724 9.3179ZM31.3082 11.341H25.2915V0.691822C25.2915 0.31951 24.972 0 24.5991 0C15.0156 0 17.0921 0 7.29525 0C6.9224 0 6.60237 0.31951 6.60237 0.691822V11.341H0.69288C0.320038 11.341 0 11.6606 0 12.0329V31.3076C0 31.6805 0.320038 32 0.69288 32H31.3082C31.681 32 32.0005 31.6805 32.0005 31.3076V11.9801C31.9472 11.6072 31.681 11.341 31.3082 11.341Z" fill="#0E47A1"/>
<path d="M14.6414 17.3043H9.95604C9.58319 17.3043 9.26367 17.6238 9.26367 17.9967C9.26367 18.369 9.58319 18.6885 9.95604 18.6885H14.6414C15.0142 18.6885 15.3332 18.369 15.3332 17.9967C15.3332 17.6238 15.0142 17.3043 14.6414 17.3043Z" fill="#0E47A1"/>
<path d="M10.0098 15.334C10.0098 15.7069 10.3293 16.0264 10.7021 16.0264H14.6951C15.0679 16.0264 15.3874 15.7069 15.3874 15.334C15.3874 14.9617 15.0679 14.6422 14.6951 14.6422H10.7021C10.2759 14.6422 10.0098 14.9617 10.0098 15.334Z" fill="#0E47A1"/>
</svg>
