<svg width="16" height="16" viewBox="0 0 16 16" fill="none" xmlns="http://www.w3.org/2000/svg">
<path fill-rule="evenodd" clip-rule="evenodd" d="M8.00112 14.1252L8.48188 13.5835C9.0274 12.9588 9.51807 12.366 9.95464 11.8022L10.315 11.3268C11.8198 9.29934 12.5725 7.6902 12.5725 6.50087C12.5725 3.9622 10.5261 1.9043 8.00112 1.9043C5.47616 1.9043 3.42969 3.9622 3.42969 6.50087C3.42969 7.6902 4.18245 9.29934 5.68721 11.3268L6.04759 11.8022C6.6704 12.6002 7.32201 13.3746 8.00112 14.1252Z" stroke="white" stroke-width="1.5" stroke-linecap="round" stroke-linejoin="round"/>
<path d="M8.00242 8.37984C9.05439 8.37984 9.90718 7.52705 9.90718 6.47507C9.90718 5.4231 9.05439 4.57031 8.00242 4.57031C6.95045 4.57031 6.09766 5.4231 6.09766 6.47507C6.09766 7.52705 6.95045 8.37984 8.00242 8.37984Z" stroke="white" stroke-width="1.5" stroke-linecap="round" stroke-linejoin="round"/>
</svg>
