<svg width="32" height="32" viewBox="0 0 32 32" fill="none" xmlns="http://www.w3.org/2000/svg">
<path d="M1.33135 30.6153V27.2613H30.6158V30.6153H1.33135ZM30.6158 1.33084V4.68536H1.33135V1.33084H30.6158ZM30.6158 11.341V20.659H26.6228V11.341H30.6158ZM1.33135 21.9898H6.01668C6.38952 21.9898 6.70902 21.6703 6.70902 21.2974V10.6487C6.70902 10.2759 6.38952 9.95637 6.01668 9.95637H1.33135V5.96338H30.6158V9.95637H25.9305C25.5576 9.95637 25.2381 10.2759 25.2381 10.6487V21.2974C25.2381 21.6703 25.5576 21.9898 25.9305 21.9898H30.6158V25.9833H1.33135V21.9898ZM1.33135 11.341H5.32434V20.659H1.33135V11.341ZM31.3082 0H0.692338C0.319496 0 0 0.31951 0 0.691822C0 11.4477 0 20.6589 0 31.3076C0 31.6805 0.319496 32 0.692338 32H31.3082C31.681 32 32 31.6805 32 31.3076C32 10.1164 32 20.7656 32 0.691822C31.9472 0.31951 31.681 0 31.3082 0Z" fill="#0E47A1"/>
<path d="M20.713 13.6307C20.713 15.441 19.2222 16.8785 17.4652 16.8785H14.5368C12.7265 16.8785 11.2885 15.3877 11.2885 13.6307V9.31819H15.761L15.0692 11.288C14.9097 11.6609 15.1758 12.087 15.6015 12.1398L16.7728 12.2999L15.8148 13.6307C15.6015 13.9502 15.6548 14.323 15.9743 14.5359C16.2938 14.7492 16.6667 14.6959 16.8795 14.3764L18.477 12.1398C18.7432 11.7142 18.5298 11.1819 18.0508 11.0752L16.6128 10.8624L17.1457 9.21151H20.713V13.6307ZM21.4053 7.98681C18.956 7.98681 12.7798 7.98681 10.5966 7.98681C10.2238 7.98681 9.9043 8.30634 9.9043 8.67918V13.684C9.9043 16.2401 11.9808 18.2632 14.4835 18.2632H15.282V21.4049H13.4188C13.046 21.4049 12.7265 21.7239 12.7265 22.0967C12.7265 22.4696 13.046 22.7891 13.4188 22.7891H18.5298C18.9027 22.7891 19.2222 22.4696 19.2222 22.0967C19.2222 21.7239 18.9027 21.4049 18.5298 21.4049H16.6667V18.2632H17.4652C20.0212 18.2632 22.0444 16.1867 22.0444 13.684V8.73199C22.0444 8.30634 21.7782 7.98681 21.4053 7.98681Z" fill="#0E47A1"/>
</svg>
