<svg width="32" height="32" viewBox="0 0 32 32" fill="none" xmlns="http://www.w3.org/2000/svg">
<path d="M4.74817 16.7188H9.44121C9.81467 16.7188 10.1342 16.3992 10.1342 16.0264C10.1342 15.6535 9.81467 15.3346 9.44121 15.3346H4.74817C4.37471 15.3346 4.05469 15.6535 4.05469 16.0264C4.05469 16.3992 4.37471 16.7188 4.74817 16.7188Z" fill="#0E47A1"/>
<path d="M11.4143 18.0492H4.74817C4.37471 18.0492 4.05469 18.3692 4.05469 18.7415C4.05469 19.1144 4.37471 19.4333 4.74817 19.4333H11.4143C11.7878 19.4333 12.1078 19.1144 12.1078 18.7415C12.1078 18.3692 11.7878 18.0492 11.4143 18.0492Z" fill="#0E47A1"/>
<path d="M24.053 30.6692C20.3729 30.6692 17.3863 27.6874 17.3863 24.0133C17.3863 20.0731 20.7464 17.0385 24.6397 17.358C28.1066 17.677 30.7191 20.4993 30.7191 23.9605C30.7191 27.6874 27.7331 30.6692 24.053 30.6692ZM1.38644 5.37779H9.38666V9.37138C9.38666 9.7437 9.70669 10.0632 10.0801 10.0632H18.0798C18.4533 10.0632 18.7728 9.7437 18.7728 9.37138V5.37779H24.1064V16.0267C20.2132 16.0267 16.8531 18.8489 16.2131 22.6825H1.38644V5.37779ZM9.38666 1.38419V4.04694H1.38644V1.38419H9.38666ZM17.3863 1.38419V8.73236H10.7202V5.37779H13.3868C13.7602 5.37779 14.0797 5.05827 14.0797 4.68595C14.0797 4.31311 13.7602 3.99307 13.3868 3.99307H10.7202V1.33085C10.7202 1.38419 17.3863 1.38419 17.3863 1.38419ZM24.053 4.04694H18.7199V1.38419H24.053V4.04694ZM25.386 16.1328V0.69183C25.386 0.31951 25.0665 1.90735e-06 24.6931 1.90735e-06C22.1863 1.90735e-06 3.04004 1.90735e-06 0.693504 1.90735e-06C0.320048 1.90735e-06 0 0.31951 0 0.69183V23.3216C0 23.6944 0.320048 24.0133 0.693504 24.0133H15.9999C15.9999 28.3797 19.5731 32 23.9996 32C28.426 32 31.9993 28.4331 31.9993 24.0133C32.0527 20.0731 29.1724 16.7718 25.386 16.1328Z" fill="#0E47A1"/>
<path d="M25.3873 22.682C25.0143 22.682 24.6943 23.0016 24.6943 23.3739V28.0597H23.3608V23.3739C23.3608 23.0016 23.0412 22.682 22.6678 22.682H22.5604L24.0008 20.5527L25.4407 22.682H25.3873ZM24.6409 19.0085C24.3743 18.6356 23.7877 18.6356 23.521 19.0085L20.8545 23.0016C20.5339 23.4278 20.8545 24.0667 21.3877 24.0667H22.0807V28.7522C22.0807 29.1244 22.4012 29.4446 22.7741 29.4446H25.4407C25.8141 29.4446 26.1342 29.1244 26.1342 28.7522V24.0667H26.8277C27.3609 24.0667 27.6809 23.481 27.3609 23.0548L24.6409 19.0085Z" fill="#0E47A1"/>
</svg>
