<svg width="32" height="32" viewBox="0 0 32 32" fill="none" xmlns="http://www.w3.org/2000/svg">
<path d="M4.74768 16.7188H9.44073C9.81418 16.7188 10.1337 16.3993 10.1337 16.0264C10.1337 15.6541 9.81418 15.3346 9.44073 15.3346H4.74768C4.37422 15.3346 4.0542 15.6541 4.0542 16.0264C4.0542 16.3993 4.37422 16.7188 4.74768 16.7188Z" fill="#0E47A1"/>
<path d="M11.4138 18.0499H4.74768C4.37422 18.0499 4.0542 18.3689 4.0542 18.7417C4.0542 19.1146 4.37422 19.4341 4.74768 19.4341H11.4138C11.7873 19.4341 12.1073 19.1146 12.1073 18.7417C12.1073 18.3689 11.7873 18.0499 11.4138 18.0499Z" fill="#0E47A1"/>
<path d="M24.053 30.6686C20.3729 30.6686 17.3863 27.687 17.3863 24.0135C17.3863 20.0733 20.7464 17.0383 24.6397 17.3578C28.1066 17.6773 30.7191 20.4995 30.7191 23.9601C30.7191 27.687 27.7331 30.6686 24.053 30.6686ZM1.38644 5.3777H9.38666V9.37124C9.38666 9.74355 9.70669 10.063 10.0801 10.063H18.0798C18.4533 10.063 18.7728 9.74355 18.7728 9.37124V5.3777H24.1064V16.0264C20.2132 16.0264 16.8531 18.8486 16.2131 22.6821H1.38644V5.3777ZM9.38666 1.38416V4.04635H1.38644V1.38416H9.38666ZM17.3863 1.38416V8.73222H10.7202V5.3777H13.3868C13.7602 5.3777 14.0797 5.0582 14.0797 4.68536C14.0797 4.31305 13.7602 3.99354 13.3868 3.99354H10.7202V1.33135C10.7202 1.38416 17.3863 1.38416 17.3863 1.38416ZM24.053 4.04635H18.7199V1.38416H24.053V4.04635ZM25.386 16.1331V0.692338C25.386 0.319495 25.0665 -1.09696e-06 24.6931 -1.09696e-06C22.1863 -1.09696e-06 3.04004 -1.09696e-06 0.693504 -1.09696e-06C0.320048 -1.09696e-06 0 0.319495 0 0.692338V23.3211C0 23.694 0.320048 24.0135 0.693504 24.0135H15.9999C15.9999 28.3793 19.5731 32 23.9996 32C28.426 32 31.9993 28.4327 31.9993 24.0135C32.0527 20.0733 29.1724 16.7721 25.386 16.1331Z" fill="#0E47A1"/>
<path d="M26.72 27.3673H21.3869V23.3743C22.7199 23.3743 25.3865 23.3743 26.72 23.3743V27.3673ZM22.7199 20.7121C22.7199 19.9664 23.3071 19.3807 24.0535 19.3807C24.8004 19.3807 25.3865 19.9664 25.3865 20.7121V22.0429H22.7199V20.7121ZM27.413 22.0429H26.72V20.7121C26.72 19.2213 25.5468 18.0499 24.0535 18.0499C22.5596 18.0499 21.3869 19.2213 21.3869 20.7121V22.0429H20.6934C20.32 22.0429 20.0005 22.3624 20.0005 22.7352V28.0596C20.0005 28.4325 20.32 28.752 20.6934 28.752H27.3601C27.7336 28.752 28.0531 28.4325 28.0531 28.0596V22.7352C28.0531 22.3091 27.7865 22.0429 27.413 22.0429Z" fill="#0E47A1"/>
</svg>
