<svg width="16" height="16" viewBox="0 0 16 16" fill="none" xmlns="http://www.w3.org/2000/svg">
<path d="M3.71489 5.25708C3.52389 3.99908 4.41089 2.86908 5.76589 2.45508C6.00635 2.38156 6.26579 2.40249 6.49135 2.5136C6.71691 2.62471 6.89163 2.81764 6.97989 3.05308L7.41489 4.21308C7.48492 4.39969 7.49758 4.60298 7.45126 4.79684C7.40493 4.9907 7.30173 5.16629 7.15489 5.30108L5.86089 6.48608C5.79711 6.54461 5.74958 6.61868 5.72294 6.70105C5.6963 6.78342 5.69146 6.87128 5.70889 6.95608L5.72089 7.00808L5.75189 7.13808C5.91282 7.76973 6.15802 8.37684 6.48089 8.94308C6.8326 9.54478 7.26908 10.0927 7.77689 10.5701L7.81689 10.6061C7.88149 10.6634 7.95985 10.703 8.04432 10.7211C8.12879 10.7392 8.2165 10.735 8.29889 10.7091L9.97189 10.1821C10.162 10.1224 10.3657 10.1209 10.5567 10.1777C10.7477 10.2345 10.9173 10.3471 11.0439 10.5011L11.8359 11.4621C12.1659 11.8621 12.1259 12.4501 11.7469 12.8031C10.7099 13.7701 9.28389 13.9681 8.29189 13.1711C7.07592 12.1902 6.05085 10.994 5.26789 9.64208C4.47859 8.29122 3.95236 6.80351 3.71489 5.25708ZM6.75789 7.02208L7.82989 6.03808C8.12373 5.76862 8.33033 5.41748 8.42316 5.02976C8.51599 4.64203 8.49083 4.2354 8.35089 3.86208L7.91689 2.70208C7.73924 2.22833 7.38763 1.84014 6.93371 1.61662C6.47979 1.3931 5.95773 1.35106 5.47389 1.49908C3.79089 2.01408 2.43989 3.52308 2.72589 5.40808C2.92589 6.72408 3.38689 8.39808 4.40389 10.1461C5.24861 11.6038 6.35435 12.8936 7.66589 13.9511C9.15389 15.1461 11.1399 14.7381 12.4299 13.5361C12.799 13.1924 13.0231 12.7208 13.0563 12.2176C13.0896 11.7143 12.9296 11.2174 12.6089 10.8281L11.8169 9.86608C11.5635 9.55856 11.2241 9.33373 10.8421 9.22041C10.4601 9.1071 10.053 9.11046 9.67289 9.23008L8.28389 9.66708C7.92526 9.29731 7.61113 8.88686 7.34789 8.44408C7.09362 7.99644 6.89546 7.51918 6.75789 7.02308V7.02208Z" fill="white"/>
</svg>
