<svg width="33" height="32" viewBox="0 0 33 32" fill="none" xmlns="http://www.w3.org/2000/svg">
<path d="M1.27575 28.3322V27.0033H30.5116V28.3322C26.7375 28.3322 5.47508 28.3322 1.27575 28.3322ZM27.216 30.5648H24.5581V29.608H27.216V30.5648ZM7.92027 30.5648H5.26246V29.608H7.92027V30.5648ZM1.27575 23.0166C4.7309 23.0166 26.7907 23.0166 30.5116 23.0166V25.6744H1.27575V23.0166ZM7.28239 9.72758H8.6113V21.6877H7.28239V9.72758ZM3.93356 5.31561C3.93356 3.13621 5.74086 1.32891 7.92027 1.32891C10.0997 1.32891 11.907 3.13621 11.907 5.31561V8.39867C8.93023 8.39867 6.9103 8.39867 3.93356 8.39867V5.31561ZM17.2226 11.0565H19.2425V15.7342C19.2425 16.1063 19.5615 16.4252 19.9336 16.4252H23.9203C24.2924 16.4252 24.6113 16.1063 24.6113 15.7342V11.0565H27.9601V21.6877H17.3289V11.0565H17.2226ZM20.5714 11.0565H23.2292V15.0432H20.5714V11.0565ZM19.8804 1.75415H21.1561V5.2093C21.1561 5.5814 21.4751 5.90033 21.8472 5.90033H24.9302C25.3023 5.90033 25.6213 5.5814 25.6213 5.2093V1.75415H27.907V9.72758C25.0897 9.72758 22.6977 9.72758 19.9336 9.72758L19.8804 1.75415ZM24.2392 1.75415V4.57143H22.4851V1.75415H24.2392ZM31.2027 21.6877H29.1827C29.1827 19.5615 29.1827 3.34884 29.1827 1.11628C29.1827 0.744186 28.8638 0.425249 28.4917 0.425249C25.0897 0.425249 22.3256 0.425249 19.1894 0.425249C18.8173 0.425249 18.4983 0.744186 18.4983 1.11628V9.78073H16.4784C16.1063 9.78073 15.7874 10.0997 15.7874 10.4718V21.794H9.9402V9.72758H12.598C12.9701 9.72758 13.289 9.40864 13.289 9.03654V5.31561C13.289 2.39203 10.897 0 7.97342 0C5.04983 0 2.65781 2.39203 2.65781 5.31561V9.03654C2.65781 9.40864 2.97674 9.72758 3.34884 9.72758H6.00665V21.6877H0.69103C0.318937 21.6877 0 22.0066 0 22.3787C0 24.6645 0 26.7375 0 29.0233C0 29.3953 0.318937 29.7143 0.69103 29.7143H4.03987V31.309C4.03987 31.6811 4.3588 32 4.7309 32H8.71761C9.0897 32 9.40864 31.6811 9.40864 31.309V29.7143H23.3887V31.309C23.3887 31.6811 23.7076 32 24.0797 32H28.0664C28.4385 32 28.7575 31.6811 28.7575 31.309V29.7143H31.4153C31.7874 29.7143 32.1063 29.3953 32.1063 29.0233C32.1063 26.7375 32.1063 24.6645 32.1063 22.3787C31.8405 21.9535 31.5748 21.6877 31.2027 21.6877Z" fill="#0E47A1"/>
<path d="M6.85854 6.27233C7.12433 6.48495 7.54957 6.4318 7.81536 6.11286L9.83529 3.45505C10.0479 3.18927 9.99476 2.76402 9.67582 2.49824C9.35688 2.23246 8.98479 2.33877 8.71901 2.65771L6.69908 5.31552C6.53961 5.63445 6.59276 6.0597 6.85854 6.27233Z" fill="#0E47A1"/>
</svg>
