<svg width="25" height="25" viewBox="0 0 25 25" fill="none" xmlns="http://www.w3.org/2000/svg">
<path d="M15.0338 1.741C15.0677 1.61409 15.1263 1.49511 15.2063 1.39086C15.2862 1.28661 15.3859 1.19914 15.4997 1.13344C15.6134 1.06773 15.739 1.02509 15.8693 1.00794C15.9995 0.990793 16.1319 0.999477 16.2588 1.0335C18.1126 1.51718 19.804 2.4863 21.1587 3.84104C22.5135 5.19578 23.4826 6.88717 23.9663 8.741C24.0003 8.86789 24.009 9.00024 23.9918 9.13049C23.9747 9.26073 23.932 9.38633 23.8663 9.50009C23.8006 9.61385 23.7131 9.71355 23.6089 9.79349C23.5047 9.87343 23.3857 9.93205 23.2588 9.966C23.1743 9.98819 23.0873 9.99953 23 9.99975C22.7796 9.99974 22.5655 9.92695 22.3907 9.79268C22.216 9.65841 22.0905 9.47018 22.0338 9.25725C21.6393 7.7439 20.8483 6.36313 19.7425 5.25728C18.6366 4.15142 17.2559 3.36048 15.7425 2.966C15.6155 2.93219 15.4964 2.87366 15.392 2.79378C15.2876 2.71389 15.2 2.61421 15.1342 2.50044C15.0683 2.38666 15.0256 2.26103 15.0084 2.13071C14.9911 2.0004 14.9998 1.86797 15.0338 1.741ZM14.7425 6.966C16.4663 7.426 17.5738 8.5335 18.0338 10.2572C18.0905 10.4702 18.216 10.6584 18.3907 10.7927C18.5655 10.9269 18.7796 10.9997 19 10.9997C19.0873 10.9995 19.1743 10.9882 19.2588 10.966C19.3857 10.9321 19.5047 10.8734 19.6089 10.7935C19.7131 10.7135 19.8006 10.6138 19.8663 10.5001C19.932 10.3863 19.9747 10.2607 19.9918 10.1305C20.009 10.0002 20.0003 9.86789 19.9663 9.741C19.3263 7.346 17.6538 5.6735 15.2588 5.0335C15.0025 4.96504 14.7295 5.00118 14.4999 5.13398C14.2703 5.26678 14.1028 5.48536 14.0344 5.74162C13.9659 5.99789 14.0021 6.27085 14.1349 6.50047C14.2677 6.73008 14.4862 6.89754 14.7425 6.966ZM24.985 18.8847C24.7621 20.5785 23.9303 22.1333 22.6449 23.2586C21.3595 24.3839 19.7084 25.0028 18 24.9997C8.07501 24.9997 1.13108e-05 16.9247 1.13108e-05 6.99975C-0.00305116 5.29136 0.61587 3.64028 1.74118 2.35487C2.86649 1.06946 4.42122 0.23763 6.11501 0.014747C6.54333 -0.0375518 6.97707 0.0500746 7.35149 0.264545C7.72592 0.479016 8.02094 0.808828 8.19251 1.20475L10.8325 7.0985V7.1135C10.9639 7.41656 11.0181 7.74745 10.9904 8.07659C10.9627 8.40574 10.8539 8.7229 10.6738 8.99975C10.6513 9.0335 10.6275 9.06475 10.6025 9.096L8.00001 12.181C8.93626 14.0835 10.9263 16.056 12.8538 16.9947L15.8963 14.406C15.9261 14.3809 15.9574 14.3575 15.99 14.336C16.2666 14.1515 16.5849 14.0389 16.916 14.0083C17.2471 13.9778 17.5806 14.0302 17.8863 14.161L17.9025 14.1685L23.7913 16.8072C24.1879 16.9782 24.5185 17.273 24.7337 17.6474C24.9489 18.0219 25.037 18.456 24.985 18.8847ZM23 18.6347C23 18.6347 22.9913 18.6347 22.9863 18.6347L17.1113 16.0035L14.0675 18.5922C14.038 18.6173 14.0071 18.6406 13.975 18.6622C13.6872 18.8543 13.3545 18.9683 13.0094 18.9933C12.6644 19.0183 12.3187 18.9533 12.0063 18.8047C9.66501 17.6735 7.33126 15.3572 6.19876 13.041C6.0488 12.7308 5.9815 12.3872 6.0034 12.0433C6.0253 11.6995 6.13565 11.3671 6.32376 11.0785C6.34496 11.0446 6.36879 11.0124 6.39501 10.9822L9.00001 7.8935L6.37501 2.0185C6.37452 2.01351 6.37452 2.00848 6.37501 2.0035C5.16283 2.16162 4.04986 2.7562 3.24453 3.67589C2.43919 4.59558 1.99674 5.7773 2.00001 6.99975C2.00464 11.2418 3.69184 15.3088 6.69142 18.3083C9.691 21.3079 13.758 22.9951 18 22.9997C19.2217 23.0039 20.4031 22.563 21.3233 21.7594C22.2436 20.9559 22.8396 19.8446 23 18.6335V18.6347Z" fill="#0E47A1"/>
</svg>
