<svg width="32" height="33" viewBox="0 0 32 33" fill="none" xmlns="http://www.w3.org/2000/svg">
<path d="M16 18.5C15.0111 18.5 14.0444 18.2068 13.2222 17.6574C12.3999 17.1079 11.759 16.3271 11.3806 15.4134C11.0022 14.4998 10.9031 13.4945 11.0961 12.5246C11.289 11.5546 11.7652 10.6637 12.4645 9.96447C13.1637 9.26521 14.0546 8.789 15.0246 8.59608C15.9945 8.40315 16.9998 8.50217 17.9134 8.8806C18.8271 9.25904 19.6079 9.89991 20.1574 10.7222C20.7068 11.5444 21 12.5111 21 13.5C20.9984 14.8256 20.4711 16.0964 19.5338 17.0338C18.5964 17.9711 17.3256 18.4984 16 18.5ZM16 10.5C15.4067 10.5 14.8266 10.6759 14.3333 11.0056C13.8399 11.3352 13.4554 11.8038 13.2284 12.352C13.0013 12.9001 12.9419 13.5033 13.0576 14.0853C13.1734 14.6672 13.4591 15.2018 13.8787 15.6213C14.2982 16.0409 14.8328 16.3266 15.4147 16.4424C15.9967 16.5581 16.5999 16.4987 17.1481 16.2716C17.6962 16.0446 18.1648 15.6601 18.4944 15.1667C18.8241 14.6734 19 14.0933 19 13.5C18.9992 12.7046 18.6829 11.942 18.1204 11.3796C17.558 10.8171 16.7954 10.5008 16 10.5Z" fill="#0E47A1"/>
<path d="M16 30.5L7.56401 20.551C7.44679 20.4016 7.33078 20.2513 7.21601 20.1C5.77571 18.2014 4.99733 15.8831 5.00001 13.5C5.00001 10.5826 6.15893 7.78473 8.22183 5.72183C10.2847 3.65893 13.0826 2.5 16 2.5C18.9174 2.5 21.7153 3.65893 23.7782 5.72183C25.8411 7.78473 27 10.5826 27 13.5C27.0023 15.882 26.2243 18.1991 24.785 20.097L24.784 20.1C24.784 20.1 24.484 20.494 24.439 20.547L16 30.5ZM8.81301 18.895C8.81301 18.895 9.04601 19.203 9.09901 19.269L16 27.408L22.91 19.258C22.954 19.203 23.188 18.893 23.189 18.892C24.3662 17.3411 25.0024 15.447 25 13.5C25 11.1131 24.0518 8.82387 22.364 7.13604C20.6761 5.44821 18.387 4.5 16 4.5C13.6131 4.5 11.3239 5.44821 9.63605 7.13604C7.94822 8.82387 7.00001 11.1131 7.00001 13.5C6.99754 15.4483 7.63445 17.3436 8.81301 18.895Z" fill="#0E47A1"/>
</svg>
