<svg width="33" height="33" viewBox="0 0 33 33" fill="none" xmlns="http://www.w3.org/2000/svg">
<path d="M7.92979 11.0142C7.54779 8.49816 9.32179 6.23816 12.0318 5.41016C12.5127 5.26313 13.0316 5.30498 13.4827 5.5272C13.9338 5.74942 14.2833 6.13528 14.4598 6.60616L15.3298 8.92616C15.4698 9.29939 15.4952 9.70595 15.4025 10.0937C15.3099 10.4814 15.1035 10.8326 14.8098 11.1022L12.2218 13.4722C12.0942 13.5892 11.9992 13.7374 11.9459 13.9021C11.8926 14.0668 11.8829 14.2426 11.9178 14.4122L11.9418 14.5162L12.0038 14.7762C12.3256 16.0395 12.816 17.2537 13.4618 18.3862C14.1652 19.5896 15.0382 20.6855 16.0538 21.6402L16.1338 21.7122C16.263 21.8268 16.4197 21.9061 16.5886 21.9422C16.7576 21.9783 16.933 21.97 17.0978 21.9182L20.4438 20.8642C20.824 20.7448 21.2313 20.7417 21.6133 20.8554C21.9953 20.9691 22.3347 21.1943 22.5878 21.5022L24.1718 23.4242C24.8318 24.2242 24.7518 25.4002 23.9938 26.1062C21.9198 28.0402 19.0678 28.4362 17.0838 26.8422C14.6518 24.8805 12.6017 22.488 11.0358 19.7842C9.45717 17.0824 8.40471 14.107 7.92979 11.0142ZM14.0158 14.5442L16.1598 12.5762C16.7475 12.0372 17.1607 11.335 17.3463 10.5595C17.532 9.78406 17.4817 8.97081 17.2018 8.22416L16.3338 5.90416C15.9785 4.95666 15.2753 4.18028 14.3674 3.73324C13.4596 3.2862 12.4155 3.20213 11.4478 3.49816C8.08179 4.52816 5.37979 7.54616 5.95179 11.3162C6.35179 13.9482 7.27379 17.2962 9.30779 20.7922C10.9972 23.7076 13.2087 26.2872 15.8318 28.4022C18.8078 30.7922 22.7798 29.9762 25.3598 27.5722C26.098 26.8848 26.5461 25.9416 26.6126 24.9351C26.6792 23.9287 26.3591 22.9347 25.7178 22.1562L24.1338 20.2322C23.6271 19.6171 22.9482 19.1675 22.1842 18.9408C21.4202 18.7142 20.6059 18.7209 19.8458 18.9602L17.0678 19.8342C16.3505 19.0946 15.7223 18.2737 15.1958 17.3882C14.6872 16.4929 14.2909 15.5384 14.0158 14.5462V14.5442Z" fill="#0E47A1"/>
</svg>
