<svg width="33" height="32" viewBox="0 0 33 32" fill="none" xmlns="http://www.w3.org/2000/svg">
<path d="M20.2124 30.1293C22.6705 27.6713 23.9533 23.6087 24.4346 20.1355C24.4346 20.0814 24.4346 19.9749 24.4346 19.9213L30.6876 16.5007C30.4734 22.9142 26.1447 28.3657 20.2124 30.1293ZM1.61367 19.0663H7.43884C7.81308 22.8607 9.09591 27.4571 11.7681 30.1293C6.69089 28.5793 2.73588 24.3577 1.61367 19.0663ZM16.6847 30.6636V19.0663H19.7311V21.4178C19.7311 21.9521 20.266 22.2193 20.6932 22.0057L22.9382 20.7769C22.4569 23.6087 21.4412 26.7086 19.6246 28.7935C18.716 29.8086 17.7003 30.45 16.6847 30.6636ZM12.356 28.7399C10.2181 26.2278 9.14891 22.3264 8.82821 19.0128H15.3489V30.6636C14.2802 30.45 13.2645 29.8086 12.356 28.7399ZM11.8211 1.96398C9.41662 4.369 8.13379 8.37755 7.653 11.6911H5.03382C4.66011 11.6911 4.3394 12.0113 4.3394 12.3856C4.3394 12.7598 4.66011 13.0805 5.03382 13.0805H20.3725C20.7468 13.0805 21.0675 12.7598 21.0675 12.3856V10.5149L29.9926 15.3785L21.0675 20.242V18.3714C21.0675 17.9971 20.7468 17.6764 20.3725 17.6764H1.39951C1.34651 17.1421 1.29297 16.5542 1.29297 16.0199H15.9903C16.364 16.0199 16.6847 15.6992 16.6847 15.3249C16.6847 14.9507 16.364 14.6305 15.9903 14.6305H1.39951C1.93438 8.64418 6.15603 3.62051 11.8211 1.96398ZM16.6847 1.42966C17.7003 1.64328 18.716 2.28468 19.6776 3.35334C21.174 5.11749 22.1361 7.52198 22.6705 9.87346L20.7468 8.8048C20.319 8.53764 19.7847 8.91189 19.7847 9.39268V11.6911H16.7382V1.42966H16.6847ZM15.3489 1.42966V11.6911H8.98882C9.41661 8.8048 10.4853 5.4912 12.356 3.35334C13.3181 2.23114 14.3332 1.58974 15.3489 1.42966ZM30.5805 14.2027L24.1669 10.6755C24.1669 10.622 24.1669 10.622 24.1669 10.5684C23.5796 7.57553 22.3503 4.15537 20.1589 1.96398C25.6639 3.56697 29.8325 8.37756 30.5805 14.2027ZM27.3204 4.68971C21.0675 -1.56324 10.9131 -1.56324 4.66011 4.68971C1.8273 7.52199 0.170236 11.2098 0.0101484 15.1648C0.0101484 15.2714 0.0101484 15.3249 0.0101484 15.432C-0.310557 24.5713 7.01159 32 16.0438 32C20.319 32 24.3275 30.3435 27.374 27.2965C33.6269 21.0971 33.5734 10.9427 27.3204 4.68971Z" fill="#4AB9CF"/>
</svg>
