<svg width="32" height="33" viewBox="0 0 32 33" fill="none" xmlns="http://www.w3.org/2000/svg">
<path d="M30.6181 30.6172H20.6782V8.02514H23.3359V15.999C23.3359 16.3707 23.6549 16.6903 24.0266 16.6903H28.0136C28.3858 16.6903 28.7048 16.3707 28.7048 15.999V8.02514H30.7246L30.6181 30.6172ZM1.38188 30.6172V8.02514H8.71783V12.0121H6.69799C6.16601 12.0121 5.84704 12.65 6.16602 13.075L11.4816 19.7197C11.7473 20.0387 12.2788 20.0387 12.545 19.7197L17.8606 13.075C18.2323 12.65 17.9139 12.0121 17.3292 12.0121H15.3093V8.02514H19.2957V30.6172H1.38188ZM27.3224 8.02514V15.3611H24.6646V8.02514H27.3224ZM31.3093 6.69651C29.2895 6.69651 17.3292 6.69651 15.362 6.69651V3.34751C15.362 2.97529 15.0436 2.65683 14.6714 2.65683C14.2991 2.65683 13.9802 2.97529 13.9802 3.34751V12.65C13.9802 13.0223 14.2991 13.3407 14.6714 13.3407H15.9467L12.0136 18.2846L8.07987 13.3407H9.35579C9.72749 13.3407 10.0465 13.0223 10.0465 12.65V0.742979C10.0465 0.37075 9.72749 0.0517693 9.35579 0.0517693C8.98303 0.0517693 8.66458 0.37075 8.66458 0.742979V6.74924H0.690676C0.318976 6.74924 0 7.06873 0 7.44096V31.3611C0 31.7333 0.318976 32.0518 0.690676 32.0518C2.81701 32.0518 26.4719 32.0518 31.2561 32.0518C31.6283 32.0518 31.9473 31.7333 31.9473 31.3611V7.44096C31.9473 7.01548 31.6815 6.69651 31.3093 6.69651Z" fill="white"/>
<path d="M16.6913 27.9594H14.6715V25.9396H16.6913V27.9594ZM17.3293 24.6637H13.9803C13.608 24.6637 13.2891 24.9821 13.2891 25.3544V28.7034C13.2891 29.0756 13.608 29.394 13.9803 29.394H17.3293C17.7015 29.394 18.0205 29.0756 18.0205 28.7034V25.3544C18.0205 24.9294 17.7015 24.6637 17.3293 24.6637Z" fill="white"/>
<path d="M10.6849 27.9594H8.66509V25.9396H10.6849V27.9594ZM11.3761 24.6637H8.02714C7.65491 24.6637 7.33594 24.9821 7.33594 25.3544V28.7034C7.33594 29.0756 7.65491 29.394 8.02714 29.394H11.3761C11.7478 29.394 12.0673 29.0756 12.0673 28.7034V25.3544C12.0141 24.9294 11.7478 24.6637 11.3761 24.6637Z" fill="white"/>
<path d="M12.0131 10.6831C12.3848 10.6831 12.7038 10.3647 12.7038 9.99244V0.743158C12.7038 0.37093 12.3848 0.0519476 12.0131 0.0519476C11.6409 0.0519476 11.3219 0.37093 11.3219 0.743158V10.0452C11.3752 10.4174 11.6409 10.6831 12.0131 10.6831Z" fill="white"/>
</svg>
