<svg width="32" height="32" viewBox="0 0 32 32" fill="none" xmlns="http://www.w3.org/2000/svg">
<path d="M6.12751 26.8244L8.95209 23.9963C13.0019 27.5711 19.0242 27.5711 23.0206 23.9963L25.8451 26.8244C20.3027 31.9465 11.7233 31.9465 6.12751 26.8244ZM15.3471 1.37382V5.37566C9.7518 5.74875 5.32888 10.391 5.32888 16.0466C5.32888 18.7677 6.34104 21.2222 7.99329 23.0892L5.16871 25.9173C2.77067 23.303 1.33142 19.8346 1.33142 16.0466C1.33142 8.14977 7.56677 1.69398 15.3471 1.37382ZM6.66081 15.9931C6.66081 10.8709 10.8173 6.65581 15.9866 6.65581C21.1553 6.65581 25.3118 10.8709 25.3118 15.9931C25.3118 21.1153 21.1553 25.3304 15.9866 25.3304C10.8173 25.3304 6.66081 21.1688 6.66081 15.9931ZM30.6407 15.9931C30.6407 19.7812 29.2025 23.2496 26.8039 25.8639L23.9799 23.0363C25.6321 21.1687 26.6443 18.6608 26.6443 15.9931C26.6443 10.3375 22.2214 5.69583 16.679 5.32221V1.32037C24.4059 1.69398 30.6407 8.14977 30.6407 15.9931ZM27.2839 4.68188C21.0491 -1.56063 10.9241 -1.56063 4.68932 4.68188C1.65174 7.72322 0 11.7245 0 15.9931C0 24.8499 7.14021 32 15.9866 32C20.2494 32 24.2463 30.3457 27.2839 27.3044C33.572 21.0619 33.572 10.9244 27.2839 4.68188Z" fill="#4AB9CF"/>
<path d="M12.0411 19.0345L16.0375 16.7933L18.3827 17.9671C18.702 18.1274 19.1285 18.0205 19.2887 17.6469C19.4483 17.3273 19.3415 16.9002 18.9689 16.7404L16.6771 15.5661V11.1377L20.674 13.3789V18.6074L15.9847 21.2222L12.0411 19.0345ZM15.3451 11.1377V15.6195L11.3482 17.8607V13.3789L15.3451 11.1377ZM16.3039 22.6093L21.6333 19.6208C21.8463 19.5145 21.9531 19.3012 21.9531 19.0345V13.0052C21.9531 12.7385 21.8463 12.5253 21.6333 12.4184C15.8779 9.16375 16.2511 9.37702 16.0375 9.32357C15.8779 9.32357 15.7711 9.32357 15.6115 9.43047C15.5581 9.43047 10.3355 12.4184 10.2827 12.4184C10.0691 12.5253 9.96289 12.7385 9.96289 13.0052V19.0345C9.96289 19.3012 10.0691 19.4616 10.2293 19.5679C10.1225 19.5145 11.668 20.3686 15.6115 22.6093C15.8779 22.7162 16.0909 22.7162 16.3039 22.6093Z" fill="#4AB9CF"/>
</svg>
