<svg width="16" height="18" viewBox="0 0 16 18" fill="none" xmlns="http://www.w3.org/2000/svg">
<path d="M13 17.3327C12.3056 17.3327 11.7153 17.0896 11.2292 16.6035C10.7431 16.1174 10.5 15.5271 10.5 14.8327C10.5 14.7355 10.5069 14.6346 10.5208 14.5302C10.5347 14.4257 10.5556 14.3321 10.5833 14.2493L4.70833 10.8327C4.47222 11.041 4.20833 11.2043 3.91667 11.3227C3.625 11.441 3.31944 11.4999 3 11.4993C2.30556 11.4993 1.71528 11.2563 1.22917 10.7702C0.743056 10.2841 0.5 9.69379 0.5 8.99935C0.5 8.3049 0.743056 7.71463 1.22917 7.22852C1.71528 6.7424 2.30556 6.49935 3 6.49935C3.31944 6.49935 3.625 6.55852 3.91667 6.67685C4.20833 6.79518 4.47222 6.95824 4.70833 7.16602L10.5833 3.74935C10.5556 3.66602 10.5347 3.5724 10.5208 3.46852C10.5069 3.36463 10.5 3.26379 10.5 3.16602C10.5 2.47157 10.7431 1.88129 11.2292 1.39518C11.7153 0.909071 12.3056 0.666016 13 0.666016C13.6944 0.666016 14.2847 0.909071 14.7708 1.39518C15.2569 1.88129 15.5 2.47157 15.5 3.16602C15.5 3.86046 15.2569 4.45074 14.7708 4.93685C14.2847 5.42296 13.6944 5.66602 13 5.66602C12.6806 5.66602 12.375 5.60713 12.0833 5.48935C11.7917 5.37157 11.5278 5.20824 11.2917 4.99935L5.41667 8.41602C5.44444 8.49935 5.46528 8.59324 5.47917 8.69768C5.49306 8.80213 5.5 8.90268 5.5 8.99935C5.5 9.09657 5.49306 9.1974 5.47917 9.30185C5.46528 9.40629 5.44444 9.4999 5.41667 9.58268L11.2917 12.9993C11.5278 12.791 11.7917 12.628 12.0833 12.5102C12.375 12.3924 12.6806 12.3332 13 12.3327C13.6944 12.3327 14.2847 12.5757 14.7708 13.0618C15.2569 13.548 15.5 14.1382 15.5 14.8327C15.5 15.5271 15.2569 16.1174 14.7708 16.6035C14.2847 17.0896 13.6944 17.3327 13 17.3327ZM13 3.99935C13.2361 3.99935 13.4342 3.91935 13.5942 3.75935C13.7542 3.59935 13.8339 3.40157 13.8333 3.16602C13.8333 2.9299 13.7533 2.73185 13.5933 2.57185C13.4333 2.41185 13.2356 2.33213 13 2.33268C12.7639 2.33268 12.5658 2.41268 12.4058 2.57268C12.2458 2.73268 12.1661 2.93046 12.1667 3.16602C12.1667 3.40213 12.2467 3.60018 12.4067 3.76018C12.5667 3.92018 12.7644 3.9999 13 3.99935ZM3 9.83268C3.23611 9.83268 3.43417 9.75268 3.59417 9.59268C3.75417 9.43268 3.83389 9.2349 3.83333 8.99935C3.83333 8.76324 3.75333 8.56518 3.59333 8.40518C3.43333 8.24518 3.23556 8.16546 3 8.16602C2.76389 8.16602 2.56583 8.24602 2.40583 8.40602C2.24583 8.56602 2.16611 8.76379 2.16667 8.99935C2.16667 9.23546 2.24667 9.43352 2.40667 9.59352C2.56667 9.75352 2.76444 9.83324 3 9.83268ZM13 15.666C13.2361 15.666 13.4342 15.586 13.5942 15.426C13.7542 15.266 13.8339 15.0682 13.8333 14.8327C13.8333 14.5966 13.7533 14.3985 13.5933 14.2385C13.4333 14.0785 13.2356 13.9988 13 13.9993C12.7639 13.9993 12.5658 14.0793 12.4058 14.2393C12.2458 14.3993 12.1661 14.5971 12.1667 14.8327C12.1667 15.0688 12.2467 15.2668 12.4067 15.4268C12.5667 15.5868 12.7644 15.6666 13 15.666Z" fill="white"/>
</svg>
