<svg width="32" height="32" viewBox="0 0 32 32" fill="none" xmlns="http://www.w3.org/2000/svg">
<path d="M7.32361 10.0337V8.70246H27.9362C28.3087 8.70246 28.6283 8.38284 28.6283 8.00988C28.6283 7.63743 28.3087 7.31783 27.9362 7.31783H6.63103C6.25806 7.31783 5.93845 7.63743 5.93845 8.00988V8.64911L1.67783 5.3468L5.93845 2.04449V2.6837C5.93845 3.05667 6.25806 3.37629 6.63103 3.37629H22.6095C22.9825 3.37629 23.3021 3.05667 23.3021 2.6837C23.3021 2.31073 22.9825 1.99166 22.6095 1.99166H7.32361V0.659853C7.32361 0.127341 6.68439 -0.192275 6.25806 0.127337L0.239313 4.81428C-0.079771 5.08054 -0.079771 5.61304 0.239313 5.87983L6.25806 10.5134C6.68439 10.8859 7.32361 10.5668 7.32361 10.0337Z" fill="white"/>
<path d="M9.98788 4.70761C9.61491 4.70761 9.29529 5.02776 9.29529 5.4002C9.29529 5.77317 9.61491 6.09277 9.98788 6.09277H21.3328C21.7052 6.09277 22.0248 5.77317 22.0248 5.4002C22.0248 5.02776 21.7052 4.70761 21.3328 4.70761H9.98788Z" fill="white"/>
<path d="M31.664 26.119L25.6453 21.432C25.2195 21.113 24.5802 21.432 24.5802 21.9651V23.2969H9.29377C8.9208 23.2969 8.6012 23.616 8.6012 23.9889C8.6012 24.3614 8.9208 24.6815 9.29377 24.6815H25.2728C25.6452 24.6815 25.9649 24.3614 25.9649 23.9889V23.3497L30.226 26.652L25.9649 29.9543V29.3151C25.9649 28.9421 25.6452 28.623 25.2728 28.623H3.9676C3.59463 28.623 3.27502 28.9421 3.27502 29.3151C3.27502 29.6881 3.59463 30.0077 3.9676 30.0077H24.5802V31.339C24.5802 31.872 25.2195 32.1916 25.6453 31.872L31.664 27.1845C32.037 26.9183 32.037 26.3858 31.664 26.119Z" fill="white"/>
<path d="M21.9718 27.3452C22.3443 27.3452 22.6639 27.0256 22.6639 26.6526C22.6639 26.2797 22.3443 25.9606 21.9718 25.9606H10.6269C10.2539 25.9606 9.93433 26.2797 9.93433 26.6526C9.93433 27.0256 10.2539 27.3452 10.6269 27.3452H21.9718Z" fill="white"/>
<path d="M14.6201 11.1538V15.6278L10.6258 17.8646V13.3911L14.6201 11.1538ZM19.9463 18.6105L15.2593 21.2203L11.265 18.9835L15.2593 16.7462L17.6028 17.9179C17.9224 18.078 18.3488 17.9718 18.5083 17.5989C18.6684 17.2787 18.5617 16.8524 18.1887 16.6934L15.8986 15.5211V11.1538L19.8935 13.3911V18.6105H19.9463ZM9.40067 19.3565C9.4535 19.4627 9.50686 19.5155 9.56022 19.5694C9.61357 19.6227 14.9397 22.6054 14.9397 22.6054C15.1532 22.7116 15.4189 22.7116 15.579 22.6054L20.9051 19.6227C21.118 19.5155 21.2248 19.3026 21.2248 19.0363V13.0181C21.2248 12.7518 21.0652 12.5384 20.9051 12.4317C15.1532 9.18328 15.5256 9.39618 15.4189 9.34282C15.3127 9.34282 15.1532 9.34282 14.9931 9.34282C14.8869 9.39618 9.61357 12.3789 9.56022 12.3789C9.34732 12.4856 9.2406 12.6985 9.2406 12.9647C9.2406 13.0181 9.2406 19.0363 9.2406 18.9835C9.29396 19.0902 9.34732 19.2498 9.40067 19.3565Z" fill="white"/>
</svg>
