<svg width="32" height="32" viewBox="0 0 32 32" fill="none" xmlns="http://www.w3.org/2000/svg">
<path d="M4.74756 16.7188H9.4406C9.81406 16.7188 10.1336 16.3993 10.1336 16.0264C10.1336 15.6541 9.81406 15.3346 9.4406 15.3346H4.74756C4.3741 15.3346 4.05408 15.6541 4.05408 16.0264C4.05408 16.3993 4.3741 16.7188 4.74756 16.7188Z" fill="#4AB9CF"/>
<path d="M11.4137 18.0499H4.74756C4.3741 18.0499 4.05408 18.3689 4.05408 18.7417C4.05408 19.1146 4.3741 19.4341 4.74756 19.4341H11.4137C11.7872 19.4341 12.1072 19.1146 12.1072 18.7417C12.1072 18.3689 11.7872 18.0499 11.4137 18.0499Z" fill="#4AB9CF"/>
<path d="M24.053 30.6686C20.3729 30.6686 17.3863 27.687 17.3863 24.0135C17.3863 20.0733 20.7464 17.0383 24.6397 17.3578C28.1066 17.6773 30.7191 20.4995 30.7191 23.9601C30.7191 27.687 27.7331 30.6686 24.053 30.6686ZM1.38644 5.3777H9.38666V9.37123C9.38666 9.74355 9.70669 10.063 10.0801 10.063H18.0798C18.4533 10.063 18.7728 9.74355 18.7728 9.37123V5.3777H24.1064V16.0264C20.2132 16.0264 16.8531 18.8486 16.2131 22.6821H1.38644V5.3777ZM9.38666 1.38416V4.04635H1.38644V1.38416H9.38666ZM17.3863 1.38416V8.73222H10.7202V5.3777H13.3868C13.7602 5.3777 14.0797 5.0582 14.0797 4.68536C14.0797 4.31305 13.7602 3.99354 13.3868 3.99354H10.7202V1.33135C10.7202 1.38416 17.3863 1.38416 17.3863 1.38416ZM24.053 4.04635H18.7199V1.38416H24.053V4.04635ZM25.386 16.1331V0.692337C25.386 0.319496 25.0665 0 24.6931 0C22.1863 0 3.04004 0 0.693504 0C0.320048 0 0 0.319496 0 0.692337V23.3211C0 23.694 0.320048 24.0135 0.693504 24.0135H15.9999C15.9999 28.3793 19.5731 32 23.9996 32C28.426 32 31.9993 28.4327 31.9993 24.0135C32.0527 20.0733 29.1724 16.7721 25.386 16.1331Z" fill="#4AB9CF"/>
<path d="M26.7202 27.3673H21.3871V23.3743C22.7201 23.3743 25.3866 23.3743 26.7202 23.3743V27.3673ZM22.7201 20.7121C22.7201 19.9664 23.3072 19.3807 24.0536 19.3807C24.8005 19.3807 25.3866 19.9664 25.3866 20.7121V22.0429H22.7201V20.7121ZM27.4131 22.0429H26.7202V20.7121C26.7202 19.2213 25.5469 18.0499 24.0536 18.0499C22.5598 18.0499 21.3871 19.2213 21.3871 20.7121V22.0429H20.6935C20.3201 22.0429 20.0006 22.3624 20.0006 22.7352V28.0596C20.0006 28.4325 20.3201 28.752 20.6935 28.752H27.3602C27.7337 28.752 28.0532 28.4325 28.0532 28.0596V22.7352C28.0532 22.3091 27.7866 22.0429 27.4131 22.0429Z" fill="#4AB9CF"/>
</svg>
