<svg width="20" height="20" viewBox="0 0 20 20" fill="none" xmlns="http://www.w3.org/2000/svg">
<path d="M10 1.66797C9.17591 1.66797 8.37033 1.91234 7.68512 2.37018C6.99992 2.82802 6.46587 3.47876 6.1505 4.24012C5.83514 5.00148 5.75262 5.83926 5.91339 6.64751C6.07417 7.45577 6.471 8.19819 7.05372 8.78091C7.63644 9.36363 8.37887 9.76047 9.18712 9.92124C9.99538 10.082 10.8332 9.9995 11.5945 9.68413C12.3559 9.36877 13.0066 8.83472 13.4645 8.14951C13.9223 7.46431 14.1667 6.65872 14.1667 5.83464C14.1667 4.72957 13.7277 3.66976 12.9463 2.88836C12.1649 2.10696 11.1051 1.66797 10 1.66797ZM10 8.33464C9.50555 8.33464 9.0222 8.18801 8.61107 7.91331C8.19995 7.63861 7.87952 7.24816 7.6903 6.79134C7.50108 6.33453 7.45157 5.83186 7.54804 5.34691C7.6445 4.86196 7.8826 4.4165 8.23223 4.06687C8.58186 3.71724 9.02732 3.47914 9.51227 3.38267C9.99723 3.28621 10.4999 3.33572 10.9567 3.52494C11.4135 3.71416 11.804 4.03459 12.0787 4.44571C12.3534 4.85683 12.5 5.34018 12.5 5.83464C12.5 6.49768 12.2366 7.13356 11.7678 7.6024C11.2989 8.07124 10.663 8.33464 10 8.33464ZM17.5 17.5013V16.668C17.5 15.1209 16.8854 13.6371 15.7915 12.5432C14.6975 11.4492 13.2138 10.8346 11.6667 10.8346H8.33333C6.78624 10.8346 5.30251 11.4492 4.20854 12.5432C3.11458 13.6371 2.5 15.1209 2.5 16.668V17.5013H4.16667V16.668C4.16667 15.5629 4.60565 14.5031 5.38705 13.7217C6.16846 12.9403 7.22826 12.5013 8.33333 12.5013H11.6667C12.7717 12.5013 13.8315 12.9403 14.6129 13.7217C15.3943 14.5031 15.8333 15.5629 15.8333 16.668V17.5013H17.5Z" fill="#0C0504"/>
</svg>
