<svg width="24" height="24" viewBox="0 0 24 24" fill="none" xmlns="http://www.w3.org/2000/svg">
<path d="M22.9619 22.9615H13.498V18.4889H14.4961C14.8954 18.4889 15.135 18.0497 14.8954 17.7305L11.9002 13.218C11.7006 12.9383 11.2613 12.9383 11.0617 13.218L8.06695 17.7305C7.86732 18.0497 8.06694 18.4889 8.46579 18.4889H9.46431V23.0014H0.998515V1.03813H6.50916V6.54878C6.50916 6.82841 6.7488 7.06804 7.02882 7.06804H17.012C17.2916 7.06804 17.5309 6.82841 17.5309 6.54878V0.998123H23.0415L22.9619 22.9615ZM10.5028 22.9615V17.9697C10.5028 17.6904 10.2632 17.4509 9.98318 17.4509H9.42431L11.5014 14.3361L13.5776 17.4509H13.0187C12.7391 17.4509 12.4995 17.6904 12.4995 17.9697V22.9615H10.5028ZM16.4927 0.998123V5.98991H7.50768V0.998123H16.4927ZM23.4812 0C14.8157 0 8.5058 0 0.519255 0C0.239623 0 0 0.239628 0 0.51926V23.4808C0 23.76 0.239623 24 0.519255 24C5.27142 24 18.689 24 23.4812 24C23.7608 24 24 23.76 24 23.4808V0.51926C23.9604 0.239628 23.7608 0 23.4812 0Z" fill="white"/>
<path d="M17.4904 10.9814H6.50835C5.94949 10.9814 5.51023 10.5417 5.51023 9.98285C5.51023 9.42399 5.94949 8.98473 6.50835 8.98473H17.4904C18.0493 8.98473 18.4886 9.42399 18.4886 9.98285C18.4886 10.5417 18.0493 10.9814 17.4904 10.9814ZM17.4904 7.98622H6.50835C5.39062 7.98622 4.51171 8.86472 4.51171 9.98285C4.51171 11.1014 5.39062 11.9795 6.50835 11.9795H17.4904C18.6086 11.9795 19.4871 11.1014 19.4871 9.98285C19.4871 8.86472 18.5682 7.98622 17.4904 7.98622Z" fill="white"/>
</svg>
