<svg width="24" height="24" viewBox="0 0 24 24" fill="none" xmlns="http://www.w3.org/2000/svg">
<path d="M22.9617 22.9615H19.9669C19.9669 19.9663 19.9669 4.15329 19.9669 0.998123H22.9617V22.9615ZM4.99187 19.9663H18.9684V22.9615H4.99187V19.9663ZM0.998399 0.998123H3.99363C3.99363 3.99328 3.99363 19.8067 3.99363 22.9615H0.998399V0.998123ZM18.9684 3.99328C16.9718 3.99328 6.78876 3.99328 4.99187 3.99328V0.998123H18.9684V3.99328ZM12.1001 15.2546C12.1398 15.2942 11.5807 14.7753 15.774 18.9682H8.46608L12.1001 15.2546ZM18.9684 15.4142L15.3744 11.8998L18.9684 8.18617V15.4142ZM4.99187 17.1712L16.8121 4.99179H18.9684V6.7888L7.06832 18.9682H4.99187V17.1712ZM4.99187 8.4658L8.6259 12.0198L4.99187 15.7735V8.4658ZM11.8604 8.66543C11.8204 8.62582 12.18 8.98506 8.18649 4.99179H15.4144L11.8604 8.66543ZM6.78876 4.99179C11.3811 9.58394 11.1416 9.34431 11.1815 9.38431L9.34454 11.3009L4.99187 7.06804V4.99179H6.78876ZM17.1714 18.9682C12.5392 14.3757 12.8189 14.6157 12.7389 14.5757L14.6159 12.6587L18.9284 16.8516V19.0079H17.1714V18.9682ZM23.4813 0C15.5744 0 9.02507 0 0.519419 0C0.239668 0 0 0.239628 0 0.51926V23.4808C0 23.76 0.239668 24 0.519419 24C5.95018 24 19.248 24 23.4813 24C23.7606 24 24.0002 23.76 24.0002 23.4808V0.51926C23.9602 0.239628 23.7606 0 23.4813 0Z" fill="white"/>
<path d="M2.51598 1.51704C1.95683 1.51704 1.51758 1.95629 1.51758 2.51555C1.51758 3.07442 1.95683 3.51367 2.51598 3.51367C3.07496 3.51367 3.51422 3.07442 3.51422 2.51555C3.51422 1.95629 3.07496 1.51704 2.51598 1.51704Z" fill="white"/>
<path d="M2.51616 20.4858C1.95701 20.4858 1.51776 20.925 1.51776 21.4843C1.51776 22.0436 1.95701 22.4824 2.51616 22.4824C3.07515 22.4824 3.5144 22.0436 3.5144 21.4843C3.5144 20.925 3.07515 20.4858 2.51616 20.4858Z" fill="white"/>
<path d="M21.4843 3.51367C22.0435 3.51367 22.4828 3.07442 22.4828 2.51555C22.4828 1.95629 22.0435 1.51704 21.4843 1.51704C20.9254 1.51704 20.4861 1.95629 20.4861 2.51555C20.4861 3.07442 20.9254 3.51367 21.4843 3.51367Z" fill="white"/>
<path d="M21.4843 22.4824C22.0435 22.4824 22.4828 22.0436 22.4828 21.4843C22.4828 20.925 22.0435 20.4858 21.4843 20.4858C20.9254 20.4858 20.4861 20.925 20.4861 21.4843C20.4861 22.0436 20.9254 22.4824 21.4843 22.4824Z" fill="white"/>
</svg>
