<svg width="24" height="24" viewBox="0 0 24 24" fill="none" xmlns="http://www.w3.org/2000/svg">
<path d="M19.5197 18.7687V5.23102L23.0403 1.717V22.2426L19.5197 18.7687ZM5.24006 19.487C10.8003 19.487 13.2402 19.487 18.8 19.487L22.3198 23.0014H1.72025L5.24006 19.487ZM4.52038 5.23102V18.7687L1.00057 22.2826V1.717L4.52038 5.23102ZM18.8 4.51254C15.9201 4.51254 8.07988 4.51254 5.20039 4.51254L1.68058 0.998123H22.2798L18.8 4.51254ZM15.0001 5.51065H18.5199V18.4889H15.0001V5.51065ZM10.0001 5.51065H13.9999V18.4889H10.0001V5.51065ZM5.52016 18.4889V5.51065H9.03999V18.4889H5.52016ZM24 23.5607C24 23.4808 24 0.478863 24 0.399252C23.9599 0.199627 23.8001 0.0400047 23.6001 0C23.52 0 24.5201 0 0.520519 0C0.240425 0 0 0.239628 0 0.51926C0 24.9981 0 23.5208 0 23.6408C0.0404668 23.8004 0.200364 23.9596 0.400317 24C0.480061 24 23.52 24 23.6001 24C23.8401 23.92 23.9599 23.76 24 23.5607Z" fill="white"/>
</svg>
