<svg width="24" height="24" viewBox="0 0 24 24" fill="none" xmlns="http://www.w3.org/2000/svg">
<path d="M3.99359 22.8874V17.9203H19.9668V22.8874H3.99359ZM3.99359 6.99355H19.9668V16.9272H3.99359V6.99355ZM3.99359 1.03297H19.9668V5.99999H3.99359V1.03297ZM23.4807 22.8874H20.9649V17.9203H21.9634C22.2426 17.9203 22.4822 17.6823 22.4822 17.4041C22.4822 17.1258 22.2426 16.8873 21.9634 16.8873H20.9649V6.95375H21.9634C22.2426 6.95375 22.4822 6.71531 22.4822 6.43707C22.4822 6.15921 22.2426 5.92038 21.9634 5.92038H20.9649V1.03297H23.4807C23.7604 1.03297 24 0.794533 24 0.516287C24 0.238438 23.7604 0 23.4807 0C20.1264 0 3.43434 0 0.519647 0C0.239624 0 0 0.238438 0 0.516287C0 0.794533 0.239624 1.03297 0.519647 1.03297H3.0351V5.99999H2.037C1.75737 5.99999 1.51775 6.23843 1.51775 6.51667C1.51775 6.79492 1.75737 7.03296 2.037 7.03296H3.0351V16.9666H2.037C1.75737 16.9666 1.51775 17.2054 1.51775 17.4837C1.51775 17.7616 1.75737 17.9999 2.037 17.9999H3.0351V22.967H0.519647C0.239624 22.967 0 23.2055 0 23.4836C0 23.762 0.239624 24 0.519647 24C3.87359 24 20.5657 24 23.4807 24C23.7604 24 24 23.762 24 23.4836C23.96 23.1259 23.7604 22.8874 23.4807 22.8874Z" fill="white"/>
<path d="M13.4168 14.185C12.7779 15.218 11.2205 15.218 10.5813 14.185C10.262 13.7082 10.262 13.0724 10.5017 12.5956L11.979 9.65509L13.4568 12.5956C13.736 13.0724 13.6964 13.668 13.4168 14.185ZM14.3749 12.1187L12.4583 8.26387C12.2586 7.90641 11.7394 7.90641 11.5798 8.26387L9.66279 12.1187C9.26354 12.953 9.30355 13.9068 9.7828 14.7013C10.8209 16.3704 13.2571 16.3704 14.2953 14.7013C14.7345 13.9068 14.7745 12.953 14.3749 12.1187Z" fill="white"/>
</svg>
