<svg width="18" height="19" viewBox="0 0 18 19" fill="none" xmlns="http://www.w3.org/2000/svg">
<path fill-rule="evenodd" clip-rule="evenodd" d="M16.5785 0.602171C16.7738 0.595178 16.9638 0.666041 17.1069 0.799173C17.2499 0.932304 17.3342 1.1168 17.3412 1.31207L17.6576 10.1472C17.6645 10.3425 17.5937 10.5325 17.4606 10.6756C17.3274 10.8186 17.1429 10.9029 16.9477 10.9099C16.7524 10.9169 16.5623 10.846 16.4193 10.7129C16.2763 10.5797 16.192 10.3952 16.185 10.2L15.9323 3.14214L1.5271 18.6189C1.4611 18.6898 1.38178 18.747 1.29366 18.7873C1.20555 18.8275 1.11037 18.85 1.01356 18.8535C0.916751 18.8569 0.820206 18.8413 0.729439 18.8075C0.638672 18.7736 0.55546 18.7222 0.484554 18.6562C0.413647 18.5902 0.356436 18.5109 0.316186 18.4228C0.275935 18.3347 0.253434 18.2395 0.249967 18.1427C0.246501 18.0459 0.262136 17.9493 0.29598 17.8586C0.329825 17.7678 0.381215 17.6846 0.447219 17.6137L14.8539 2.13835L7.7961 2.39109C7.60083 2.39809 7.41078 2.32722 7.26776 2.19409C7.12474 2.06096 7.04046 1.87647 7.03347 1.6812C7.02648 1.48593 7.09734 1.29588 7.23047 1.15286C7.3636 1.00984 7.5481 0.925561 7.74337 0.918568L16.5785 0.602171Z" fill="white"/>
</svg>
