<svg width="16" height="16" viewBox="0 0 16 16" fill="none" xmlns="http://www.w3.org/2000/svg">
<path d="M4.66667 7.33447H6V8.6678H4.66667V7.33447ZM14 4.00114V13.3345C14 14.0678 13.4 14.6678 12.6667 14.6678H3.33333C2.97971 14.6678 2.64057 14.5273 2.39052 14.2773C2.14048 14.0272 2 13.6881 2 13.3345L2.00667 4.00114C2.00667 3.26781 2.59333 2.66781 3.33333 2.66781H4V1.33447H5.33333V2.66781H10.6667V1.33447H12V2.66781H12.6667C13.4 2.66781 14 3.26781 14 4.00114ZM3.33333 5.33447H12.6667V4.00114H3.33333V5.33447ZM12.6667 13.3345V6.66781H3.33333V13.3345H12.6667ZM10 8.6678H11.3333V7.33447H10V8.6678ZM7.33333 8.6678H8.66667V7.33447H7.33333V8.6678Z" fill="#00060F"/>
</svg>
