<svg width="32" height="32" viewBox="0 0 32 32" fill="none" xmlns="http://www.w3.org/2000/svg">
<path d="M30.7176 30.6158H28.0603C28.0603 27.3147 28.0603 4.5792 28.0603 1.33135H30.7176V30.6158ZM5.47364 27.9537V26.6223C9.4065 26.6223 20.9922 26.6223 26.7315 26.6223V27.9537H5.47364ZM4.14528 30.6158H1.48807V1.33135H4.14528C4.14528 4.5792 4.14528 27.3147 4.14528 30.6158ZM26.7315 11.9801V13.3109H5.47364V11.9801C11.6389 11.9801 19.6106 11.9801 26.7315 11.9801ZM8.13087 6.65571H8.39655V7.7737C8.39655 8.14655 8.71545 8.46553 9.0876 8.46553H11.4792C11.8513 8.46553 12.1697 8.14655 12.1697 7.7737V6.65571H12.3294V10.6487H8.13087V6.65571ZM10.7881 6.65571V7.08137H9.72542V6.65571H10.7881ZM16.1026 3.99354H17.4314V6.0167C17.4314 6.38954 17.7503 6.70852 18.122 6.70852H22.1081C22.4802 6.70852 22.7991 6.38954 22.7991 6.0167V3.99354H24.1275V10.6487H16.1558V3.99354H16.1026ZM21.417 3.99354V5.32436H18.7598V3.99354H21.417ZM9.0876 23.1083H11.4792C11.8513 23.1083 12.1697 22.7883 12.1697 22.4159V21.298H12.3294V25.2915H8.13087V21.298H8.39655V22.4159C8.39655 22.7883 8.71545 23.1083 9.0876 23.1083ZM9.72542 21.298H10.7881V21.7769H9.72542V21.298ZM24.7653 17.3049C21.4702 17.3049 18.9727 17.3049 15.4647 17.3049C15.0926 17.3049 14.7742 17.6239 14.7742 17.9968V25.3443H13.6583V20.6589C13.6583 20.2861 13.3388 19.9671 12.9672 19.9671C10.8941 19.9671 9.40651 19.9671 7.44034 19.9671C7.06819 19.9671 6.74929 20.2861 6.74929 20.6589V25.3443H5.42041V14.6956H26.6788V25.3443H25.3499V17.9968C25.4031 17.6239 25.1374 17.3049 24.7653 17.3049ZM18.122 21.298H22.1081C22.4802 21.298 22.7991 20.9784 22.7991 20.6061V18.5824H24.1275V25.2381H16.1558V18.6358H17.4841V20.6589C17.4314 21.0313 17.7503 21.298 18.122 21.298ZM18.7598 18.6358H21.417V19.9671H18.7598V18.6358ZM31.4086 0H27.423C27.0509 0 26.7315 0.319508 26.7315 0.69235V10.7026H25.4031V3.35452C25.4031 2.98221 25.0842 2.66217 24.7121 2.66217C21.417 2.66217 18.9195 2.66217 15.412 2.66217C15.0399 2.66217 14.721 2.98221 14.721 3.35452V10.7026H13.6051V6.0167C13.6051 5.64438 13.2861 5.32436 12.9145 5.32436C10.8413 5.32436 9.35327 5.32436 7.38657 5.32436C7.01495 5.32436 6.69603 5.64438 6.69603 6.0167V10.7026H5.36716V0.69235C5.36716 0.319508 5.04877 0 4.67662 0H0.690536C0.318387 0 0 0.319508 0 0.69235V31.3077C0 31.6805 0.318387 32 0.690536 32H4.67662C5.04877 32 5.36716 31.6805 5.36716 31.3077V29.2845H26.6255V31.3077C26.6255 31.6805 26.9444 32 27.3166 32H31.3022C31.6743 32 31.9932 31.6805 31.9932 31.3077V0.69235C32.0464 0.319508 31.7808 0 31.4086 0Z" fill="#FF5E14"/>
</svg>
