<svg width="32" height="32" viewBox="0 0 32 32" fill="none" xmlns="http://www.w3.org/2000/svg">
<path d="M4.74817 16.7186H9.44121C9.81467 16.7186 10.1342 16.3991 10.1342 16.0263C10.1342 15.6534 9.81467 15.3344 9.44121 15.3344H4.74817C4.37471 15.3344 4.05469 15.6534 4.05469 16.0263C4.05469 16.3991 4.37471 16.7186 4.74817 16.7186Z" fill="#FF5E14"/>
<path d="M11.4143 18.0492H4.74817C4.37471 18.0492 4.05469 18.3692 4.05469 18.7415C4.05469 19.1144 4.37471 19.4333 4.74817 19.4333H11.4143C11.7878 19.4333 12.1078 19.1144 12.1078 18.7415C12.1078 18.3692 11.7878 18.0492 11.4143 18.0492Z" fill="#FF5E14"/>
<path d="M24.053 30.6689C20.3729 30.6689 17.3863 27.6871 17.3863 24.013C17.3863 20.0728 20.7464 17.0383 24.6397 17.3578C28.1066 17.6768 30.7191 20.499 30.7191 23.9602C30.7191 27.6871 27.7331 30.6689 24.053 30.6689ZM1.38644 5.37754H9.38666V9.37114C9.38666 9.74346 9.70669 10.063 10.0801 10.063H18.0798C18.4533 10.063 18.7728 9.74346 18.7728 9.37114V5.37754H24.1064V16.0264C20.2132 16.0264 16.8531 18.8487 16.2131 22.6822H1.38644V5.37754ZM9.38666 1.38395V4.04669H1.38644V1.38395H9.38666ZM17.3863 1.38395V8.73212H10.7202V5.37754H13.3868C13.7602 5.37754 14.0797 5.05803 14.0797 4.68571C14.0797 4.31286 13.7602 3.99282 13.3868 3.99282H10.7202V1.33061C10.7202 1.38395 17.3863 1.38395 17.3863 1.38395ZM24.053 4.04669H18.7199V1.38395H24.053V4.04669ZM25.386 16.1326V0.691586C25.386 0.319265 25.0665 -0.000242233 24.6931 -0.000242233C22.1863 -0.000242233 3.04004 -0.000242233 0.693504 -0.000242233C0.320048 -0.000242233 0 0.319265 0 0.691586V23.3213C0 23.6941 0.320048 24.013 0.693504 24.013H15.9999C15.9999 28.3795 19.5731 31.9998 23.9996 31.9998C28.426 31.9998 31.9993 28.4329 31.9993 24.013C32.0527 20.0728 29.1724 16.7716 25.386 16.1326Z" fill="#FF5E14"/>
<path d="M25.3873 22.6818C25.0143 22.6818 24.6943 23.0013 24.6943 23.3737V28.0595H23.3608V23.3737C23.3608 23.0013 23.0412 22.6818 22.6678 22.6818H22.5604L24.0008 20.5524L25.4407 22.6818H25.3873ZM24.6409 19.0082C24.3743 18.6354 23.7877 18.6354 23.521 19.0082L20.8545 23.0013C20.5339 23.4275 20.8545 24.0664 21.3877 24.0664H22.0807V28.752C22.0807 29.1241 22.4012 29.4443 22.7741 29.4443H25.4407C25.8141 29.4443 26.1342 29.1241 26.1342 28.752V24.0664H26.8277C27.3609 24.0664 27.6809 23.4808 27.3609 23.0545L24.6409 19.0082Z" fill="#FF5E14"/>
</svg>
