<svg width="32" height="32" viewBox="0 0 32 32" fill="none" xmlns="http://www.w3.org/2000/svg">
<path d="M30.6155 30.6158H27.2615V18.6358C27.2615 18.2629 26.942 17.944 26.5692 17.944C26.1963 17.944 25.8768 18.2629 25.8768 18.6358V30.6158H21.8838V18.6358C21.8838 18.2629 21.5643 17.944 21.1915 17.944C20.8186 17.944 20.4991 18.2629 20.4991 18.6358V30.6158H16.5061V15.6007L18.0503 17.1449C18.316 17.4111 18.7421 17.4111 19.0083 17.1449C19.2745 16.8788 19.2745 16.4526 19.0083 16.1859L16.3461 13.5237C16.08 13.3109 15.7605 13.2581 15.5476 13.4176C15.4409 13.5237 15.7074 13.2581 12.7257 16.1859C12.4594 16.4526 12.4594 16.8788 12.7257 17.1449C12.9918 17.4111 13.4178 17.4111 13.6839 17.1449L15.228 15.6007V30.6158H11.2349V18.6358C11.2349 18.2629 10.9153 17.944 10.5425 17.944C10.17 17.944 9.85064 18.2629 9.85064 18.6358V30.6158H5.85706V18.6358C5.85706 18.2629 5.53771 17.944 5.16492 17.944C4.7924 17.944 4.47284 18.2629 4.47284 18.6358V30.6158H1.1181V1.33135H9.10511V11.3411C9.10511 11.8734 9.69057 12.1929 10.1168 11.8734L15.7074 8.14655L21.2982 11.8734C21.7238 12.1396 22.3095 11.8734 22.3095 11.3411V1.33135H30.2965L30.6155 30.6158ZM21.2982 1.33135V10.0636L16.3461 6.76239C16.1335 6.60237 15.8139 6.60237 15.601 6.76239L10.6492 10.0636V1.33135H21.2982ZM31.3084 0C27.581 0 3.9404 0 0.692558 0C0.319557 0 0 0.319508 0 0.69235V31.3077C0 31.6805 0.319557 32 0.692558 32H31.3084C31.6807 32 32.0002 31.6805 32.0002 31.3077V0.69235C31.9469 0.319508 31.6807 0 31.3084 0Z" fill="#FF5E14"/>
</svg>
