<svg width="20" height="20" viewBox="0 0 20 20" fill="none" xmlns="http://www.w3.org/2000/svg">
<path d="M5.41602 6.24935C5.41602 6.47036 5.50381 6.68232 5.66009 6.8386C5.81637 6.99488 6.02834 7.08268 6.24935 7.08268C6.47036 7.08268 6.68232 6.99488 6.8386 6.8386C6.99488 6.68232 7.08268 6.47036 7.08268 6.24935C7.08268 6.02834 6.99488 5.81637 6.8386 5.66009C6.68232 5.50381 6.47036 5.41602 6.24935 5.41602C6.02834 5.41602 5.81637 5.50381 5.66009 5.66009C5.50381 5.81637 5.41602 6.02834 5.41602 6.24935Z" stroke="#1B0901" stroke-width="2" stroke-linecap="round" stroke-linejoin="round"/>
<path d="M2.5 5V9.31C2.50009 9.75199 2.67575 10.1758 2.98833 10.4883L9.41333 16.9133C9.78996 17.2899 10.3007 17.5015 10.8333 17.5015C11.3659 17.5015 11.8767 17.2899 12.2533 16.9133L16.9133 12.2533C17.2899 11.8767 17.5015 11.3659 17.5015 10.8333C17.5015 10.3007 17.2899 9.78996 16.9133 9.41333L10.4883 2.98833C10.1758 2.67575 9.75199 2.50009 9.31 2.5H5C4.33696 2.5 3.70107 2.76339 3.23223 3.23223C2.76339 3.70107 2.5 4.33696 2.5 5Z" stroke="#1B0901" stroke-width="2" stroke-linecap="round" stroke-linejoin="round"/>
</svg>
