<svg width="20" height="20" viewBox="0 0 20 20" fill="none" xmlns="http://www.w3.org/2000/svg">
<path d="M10 1.66699C9.17591 1.66699 8.37033 1.91136 7.68512 2.3692C6.99992 2.82704 6.46587 3.47779 6.1505 4.23914C5.83514 5.0005 5.75262 5.83828 5.91339 6.64653C6.07417 7.45479 6.471 8.19722 7.05372 8.77994C7.63644 9.36266 8.37887 9.75949 9.18712 9.92026C9.99538 10.081 10.8332 9.99852 11.5945 9.68316C12.3559 9.36779 13.0066 8.83374 13.4645 8.14853C13.9223 7.46333 14.1667 6.65775 14.1667 5.83366C14.1667 4.72859 13.7277 3.66878 12.9463 2.88738C12.1649 2.10598 11.1051 1.66699 10 1.66699ZM10 8.33366C9.50555 8.33366 9.0222 8.18704 8.61107 7.91233C8.19995 7.63763 7.87952 7.24718 7.6903 6.79037C7.50108 6.33355 7.45157 5.83089 7.54804 5.34593C7.6445 4.86098 7.8826 4.41552 8.23223 4.06589C8.58186 3.71626 9.02732 3.47816 9.51227 3.3817C9.99723 3.28523 10.4999 3.33474 10.9567 3.52396C11.4135 3.71318 11.804 4.03361 12.0787 4.44473C12.3534 4.85586 12.5 5.33921 12.5 5.83366C12.5 6.4967 12.2366 7.13259 11.7678 7.60143C11.2989 8.07027 10.663 8.33366 10 8.33366ZM17.5 17.5003V16.667C17.5 15.1199 16.8854 13.6362 15.7915 12.5422C14.6975 11.4482 13.2138 10.8337 11.6667 10.8337H8.33333C6.78624 10.8337 5.30251 11.4482 4.20854 12.5422C3.11458 13.6362 2.5 15.1199 2.5 16.667V17.5003H4.16667V16.667C4.16667 15.5619 4.60565 14.5021 5.38705 13.7207C6.16846 12.9393 7.22826 12.5003 8.33333 12.5003H11.6667C12.7717 12.5003 13.8315 12.9393 14.6129 13.7207C15.3943 14.5021 15.8333 15.5619 15.8333 16.667V17.5003H17.5Z" fill="#1B0901"/>
</svg>
